<svg xmlns="http://www.w3.org/2000/svg" xmlns:xlink="http://www.w3.org/1999/xlink" width="500" zoomAndPan="magnify" viewBox="0 0 375 374.999991" height="500" preserveAspectRatio="xMidYMid meet" version="1.0"><defs><g/></defs><rect x="-37.5" width="450" fill="#ffffff" y="-37.499999" height="449.999989" fill-opacity="1"/><rect x="-37.5" width="450" fill="#f5f5ef" y="-37.499999" height="449.999989" fill-opacity="1"/><g fill="#000000" fill-opacity="1"><g transform="translate(57.329556, 211.413545)"><g><path d="M 70.0625 -44.21875 C 70.0625 -42.6875 69.703125 -41.175781 68.984375 -39.6875 C 68.273438 -38.195312 67.289062 -36.75 66.03125 -35.34375 C 64.78125 -33.945312 63.320312 -32.613281 61.65625 -31.34375 C 59.988281 -30.082031 58.191406 -28.898438 56.265625 -27.796875 C 54.347656 -26.691406 52.375 -25.675781 50.34375 -24.75 C 53.164062 -23.101562 54.578125 -20.578125 54.578125 -17.171875 C 54.578125 -15.335938 54.265625 -13.644531 53.640625 -12.09375 L 53.671875 -12.09375 C 55.566406 -11.632812 57.414062 -11.09375 59.21875 -10.46875 C 59.78125 -10.300781 60.0625 -9.914062 60.0625 -9.3125 C 60.0625 -8.96875 59.941406 -8.675781 59.703125 -8.4375 C 59.472656 -8.207031 59.1875 -8.09375 58.84375 -8.09375 C 58.707031 -8.09375 58.570312 -8.113281 58.4375 -8.15625 C 57.539062 -8.476562 56.609375 -8.773438 55.640625 -9.046875 C 54.679688 -9.316406 53.6875 -9.5625 52.65625 -9.78125 L 52.625 -9.8125 L 52.625 -9.78125 C 51.582031 -7.90625 50.191406 -6.15625 48.453125 -4.53125 C 46.710938 -2.90625 44.71875 -1.414062 42.46875 -0.0625 C 40.226562 1.289062 37.804688 2.492188 35.203125 3.546875 C 32.609375 4.609375 29.914062 5.503906 27.125 6.234375 C 24.34375 6.972656 21.546875 7.535156 18.734375 7.921875 C 15.929688 8.304688 13.195312 8.5 10.53125 8.5 C 8.65625 8.5 6.960938 8.382812 5.453125 8.15625 C 3.941406 7.9375 2.617188 7.597656 1.484375 7.140625 L 1.453125 7.140625 C 0.910156 7.972656 0.410156 8.785156 -0.046875 9.578125 C -0.515625 10.367188 -0.972656 11.160156 -1.421875 11.953125 C -1.648438 12.378906 -2.007812 12.59375 -2.5 12.59375 C -2.84375 12.59375 -3.128906 12.472656 -3.359375 12.234375 C -3.597656 12.003906 -3.71875 11.71875 -3.71875 11.375 C -3.71875 11.195312 -3.664062 10.992188 -3.5625 10.765625 C -3.125 9.972656 -2.660156 9.179688 -2.171875 8.390625 C -1.691406 7.609375 -1.191406 6.8125 -0.671875 6 C -0.671875 6 -0.675781 5.988281 -0.6875 5.96875 C -0.707031 5.957031 -0.71875 5.953125 -0.71875 5.953125 C -2.34375 4.710938 -3.15625 3.171875 -3.15625 1.328125 C -3.15625 0.078125 -2.625 -1.164062 -1.5625 -2.40625 C -0.5 -3.644531 1.035156 -4.847656 3.046875 -6.015625 C 5.054688 -7.191406 7.472656 -8.28125 10.296875 -9.28125 C 10.410156 -9.363281 10.476562 -9.421875 10.5 -9.453125 C 13.09375 -12.671875 15.773438 -15.847656 18.546875 -18.984375 C 21.328125 -22.128906 24.085938 -25.125 26.828125 -27.96875 C 29.578125 -30.8125 32.203125 -33.421875 34.703125 -35.796875 C 37.210938 -38.179688 39.507812 -40.242188 41.59375 -41.984375 C 43.6875 -43.722656 45.460938 -45.03125 46.921875 -45.90625 C 47.148438 -46.019531 47.367188 -46.078125 47.578125 -46.078125 C 47.910156 -46.078125 48.195312 -45.957031 48.4375 -45.71875 C 48.675781 -45.488281 48.796875 -45.203125 48.796875 -44.859375 C 48.796875 -44.390625 48.59375 -44.039062 48.1875 -43.8125 C 46.851562 -43 45.234375 -41.816406 43.328125 -40.265625 C 41.421875 -38.722656 39.328125 -36.878906 37.046875 -34.734375 C 34.765625 -32.585938 32.363281 -30.226562 29.84375 -27.65625 C 27.332031 -25.082031 24.789062 -22.363281 22.21875 -19.5 C 19.644531 -16.632812 17.125 -13.703125 14.65625 -10.703125 C 18.25 -11.710938 22.007812 -12.488281 25.9375 -13.03125 C 29.863281 -13.570312 33.710938 -13.84375 37.484375 -13.84375 C 39.921875 -13.84375 42.289062 -13.738281 44.59375 -13.53125 C 46.894531 -13.332031 49.109375 -13.019531 51.234375 -12.59375 C 51.253906 -12.59375 51.273438 -12.582031 51.296875 -12.5625 L 51.296875 -12.59375 C 51.566406 -13.34375 51.773438 -14.097656 51.921875 -14.859375 C 52.066406 -15.628906 52.140625 -16.398438 52.140625 -17.171875 C 52.140625 -20.191406 50.570312 -22.28125 47.4375 -23.4375 C 47.394531 -23.457031 47.335938 -23.457031 47.265625 -23.4375 C 45.210938 -22.59375 43.175781 -21.875 41.15625 -21.28125 C 39.132812 -20.6875 37.21875 -20.226562 35.40625 -19.90625 C 33.601562 -19.59375 31.992188 -19.4375 30.578125 -19.4375 C 29.535156 -19.4375 28.675781 -19.679688 28 -20.171875 C 27.320312 -20.671875 27.003906 -21.296875 27.046875 -22.046875 C 27.117188 -22.992188 27.726562 -23.832031 28.875 -24.5625 C 30.03125 -25.300781 31.578125 -25.875 33.515625 -26.28125 C 35.460938 -26.6875 37.65625 -26.890625 40.09375 -26.890625 C 41.507812 -26.890625 42.8125 -26.8125 44 -26.65625 C 45.1875 -26.507812 46.265625 -26.300781 47.234375 -26.03125 C 47.347656 -26.007812 47.425781 -26.007812 47.46875 -26.03125 C 49.519531 -26.875 51.523438 -27.816406 53.484375 -28.859375 C 55.453125 -29.910156 57.289062 -31.03125 59 -32.21875 C 60.707031 -33.40625 62.203125 -34.648438 63.484375 -35.953125 C 64.773438 -37.265625 65.785156 -38.613281 66.515625 -40 C 67.242188 -41.394531 67.609375 -42.800781 67.609375 -44.21875 C 67.609375 -47.78125 63.109375 -49.5625 54.109375 -49.5625 C 50.648438 -49.5625 47.160156 -49.207031 43.640625 -48.5 C 40.117188 -47.789062 36.65625 -46.828125 33.25 -45.609375 C 29.84375 -44.390625 26.582031 -42.988281 23.46875 -41.40625 C 20.351562 -39.832031 17.453125 -38.160156 14.765625 -36.390625 C 12.078125 -34.628906 9.6875 -32.863281 7.59375 -31.09375 C 5.507812 -29.320312 3.8125 -27.632812 2.5 -26.03125 C 2.257812 -25.738281 1.945312 -25.59375 1.5625 -25.59375 C 1.21875 -25.59375 0.925781 -25.710938 0.6875 -25.953125 C 0.457031 -26.191406 0.34375 -26.476562 0.34375 -26.8125 C 0.34375 -27.082031 0.429688 -27.34375 0.609375 -27.59375 C 1.960938 -29.238281 3.722656 -30.984375 5.890625 -32.828125 C 8.054688 -34.671875 10.53125 -36.503906 13.3125 -38.328125 C 16.101562 -40.160156 19.117188 -41.894531 22.359375 -43.53125 C 25.597656 -45.164062 28.984375 -46.617188 32.515625 -47.890625 C 36.054688 -49.171875 39.644531 -50.175781 43.28125 -50.90625 C 46.925781 -51.644531 50.535156 -52.015625 54.109375 -52.015625 C 64.742188 -52.015625 70.0625 -49.414062 70.0625 -44.21875 Z M 29.484375 -21.84375 C 29.484375 -21.863281 29.625 -21.875 29.90625 -21.875 C 30.195312 -21.875 30.421875 -21.875 30.578125 -21.875 C 32.148438 -21.875 34.003906 -22.085938 36.140625 -22.515625 C 38.273438 -22.941406 40.539062 -23.539062 42.9375 -24.3125 C 42.4375 -24.351562 41.953125 -24.382812 41.484375 -24.40625 C 41.023438 -24.4375 40.5625 -24.453125 40.09375 -24.453125 C 38.875 -24.453125 37.640625 -24.367188 36.390625 -24.203125 C 35.148438 -24.046875 34.007812 -23.835938 32.96875 -23.578125 C 31.9375 -23.316406 31.101562 -23.035156 30.46875 -22.734375 C 29.84375 -22.429688 29.515625 -22.132812 29.484375 -21.84375 Z M 10.53125 6.0625 C 13.601562 6.0625 16.738281 5.8125 19.9375 5.3125 C 23.144531 4.820312 26.28125 4.113281 29.34375 3.1875 C 32.414062 2.257812 35.304688 1.125 38.015625 -0.21875 C 40.734375 -1.5625 43.132812 -3.078125 45.21875 -4.765625 C 47.300781 -6.460938 48.941406 -8.304688 50.140625 -10.296875 C 46.191406 -11.035156 41.972656 -11.40625 37.484375 -11.40625 C 34.546875 -11.40625 31.578125 -11.222656 28.578125 -10.859375 C 25.578125 -10.503906 22.664062 -10.015625 19.84375 -9.390625 C 17.019531 -8.773438 14.390625 -8.050781 11.953125 -7.21875 C 11.878906 -7.21875 11.8125 -7.179688 11.75 -7.109375 C 10.125 -5.054688 8.5625 -3.007812 7.0625 -0.96875 C 5.5625 1.070312 4.144531 3.085938 2.8125 5.078125 C 3.757812 5.367188 4.882812 5.601562 6.1875 5.78125 C 7.5 5.96875 8.945312 6.0625 10.53125 6.0625 Z M 0.671875 3.921875 C 1.671875 2.390625 2.738281 0.84375 3.875 -0.71875 C 5.019531 -2.289062 6.210938 -3.890625 7.453125 -5.515625 C 4.828125 -4.347656 2.804688 -3.175781 1.390625 -2 C -0.015625 -0.820312 -0.71875 0.285156 -0.71875 1.328125 C -0.71875 2.359375 -0.253906 3.222656 0.671875 3.921875 Z M 2.8125 5.046875 L 2.8125 5.078125 Z M 2.8125 5.046875 "/></g></g></g><g fill="#000000" fill-opacity="1"><g transform="translate(123.485752, 211.413545)"><g><path d="M 11.109375 -19.375 C 10.765625 -19.375 10.472656 -19.488281 10.234375 -19.71875 C 10.003906 -19.957031 9.890625 -20.25 9.890625 -20.59375 C 9.890625 -20.863281 9.976562 -21.109375 10.15625 -21.328125 L 12.125 -23.9375 C 12.375 -24.226562 12.6875 -24.375 13.0625 -24.375 C 13.40625 -24.375 13.691406 -24.253906 13.921875 -24.015625 C 14.160156 -23.785156 14.28125 -23.5 14.28125 -23.15625 C 14.28125 -22.882812 14.191406 -22.625 14.015625 -22.375 C 13.859375 -22.21875 13.644531 -21.953125 13.375 -21.578125 C 13.101562 -21.210938 12.84375 -20.867188 12.59375 -20.546875 C 12.5 -20.390625 12.398438 -20.253906 12.296875 -20.140625 C 12.203125 -20.035156 12.132812 -19.9375 12.09375 -19.84375 C 11.84375 -19.53125 11.515625 -19.375 11.109375 -19.375 Z M 1.28125 1.21875 C -0.132812 1.21875 -1.242188 0.835938 -2.046875 0.078125 C -2.847656 -0.671875 -3.25 -1.722656 -3.25 -3.078125 C -3.25 -4.484375 -2.425781 -6.421875 -0.78125 -8.890625 C 0.863281 -11.359375 3.175781 -14.128906 6.15625 -17.203125 C 6.40625 -17.453125 6.703125 -17.578125 7.046875 -17.578125 C 7.359375 -17.578125 7.640625 -17.453125 7.890625 -17.203125 C 8.140625 -16.953125 8.265625 -16.671875 8.265625 -16.359375 C 8.265625 -16.054688 8.160156 -15.785156 7.953125 -15.546875 L 7.921875 -15.5 C 6.203125 -13.738281 4.679688 -12.035156 3.359375 -10.390625 C 2.046875 -8.742188 1.019531 -7.285156 0.28125 -6.015625 C -0.445312 -4.753906 -0.8125 -3.773438 -0.8125 -3.078125 C -0.8125 -2.421875 -0.648438 -1.945312 -0.328125 -1.65625 C -0.015625 -1.363281 0.519531 -1.21875 1.28125 -1.21875 C 2.050781 -1.21875 3.085938 -1.40625 4.390625 -1.78125 C 5.703125 -2.15625 7.191406 -2.65625 8.859375 -3.28125 C 10.535156 -3.914062 12.289062 -4.644531 14.125 -5.46875 C 15.96875 -6.289062 17.820312 -7.164062 19.6875 -8.09375 C 21.550781 -9.019531 23.328125 -9.953125 25.015625 -10.890625 C 26.710938 -11.828125 28.238281 -12.722656 29.59375 -13.578125 C 29.863281 -13.691406 30.078125 -13.75 30.234375 -13.75 C 30.546875 -13.75 30.828125 -13.625 31.078125 -13.375 C 31.328125 -13.125 31.453125 -12.84375 31.453125 -12.53125 C 31.453125 -12.050781 31.257812 -11.703125 30.875 -11.484375 C 29.519531 -10.617188 27.96875 -9.707031 26.21875 -8.75 C 24.46875 -7.789062 22.632812 -6.835938 20.71875 -5.890625 C 18.800781 -4.941406 16.875 -4.035156 14.9375 -3.171875 C 13.007812 -2.316406 11.164062 -1.5625 9.40625 -0.90625 C 7.644531 -0.257812 6.066406 0.253906 4.671875 0.640625 C 3.273438 1.023438 2.144531 1.21875 1.28125 1.21875 Z M 1.28125 1.21875 "/></g></g></g><g fill="#000000" fill-opacity="1"><g transform="translate(150.266482, 211.413545)"><g><path d="M -4.296875 0.265625 C -4.816406 0.265625 -5.222656 0.078125 -5.515625 -0.296875 C -5.804688 -0.679688 -5.898438 -1.144531 -5.796875 -1.6875 C -5.722656 -2.050781 -5.40625 -2.675781 -4.84375 -3.5625 C -4.28125 -4.457031 -3.53125 -5.539062 -2.59375 -6.8125 C -1.65625 -8.09375 -0.578125 -9.476562 0.640625 -10.96875 C 1.859375 -12.457031 3.171875 -13.96875 4.578125 -15.5 C 5.992188 -17.039062 7.453125 -18.519531 8.953125 -19.9375 C 10.453125 -21.363281 11.945312 -22.640625 13.4375 -23.765625 C 13.6875 -23.921875 13.9375 -24 14.1875 -24 C 14.519531 -24 14.804688 -23.878906 15.046875 -23.640625 C 15.285156 -23.410156 15.40625 -23.125 15.40625 -22.78125 C 15.40625 -22.375 15.25 -22.050781 14.9375 -21.8125 C 13.394531 -20.65625 11.863281 -19.351562 10.34375 -17.90625 C 8.820312 -16.46875 7.363281 -14.988281 5.96875 -13.46875 C 4.582031 -11.957031 3.332031 -10.519531 2.21875 -9.15625 C 1.101562 -7.789062 0.179688 -6.613281 -0.546875 -5.625 C -0.679688 -5.4375 -0.710938 -5.296875 -0.640625 -5.203125 C -0.578125 -5.117188 -0.421875 -5.15625 -0.171875 -5.3125 C 3.828125 -8.175781 7.273438 -10.515625 10.171875 -12.328125 C 13.078125 -14.148438 15.539062 -15.492188 17.5625 -16.359375 C 19.582031 -17.234375 21.222656 -17.671875 22.484375 -17.671875 C 23.359375 -17.671875 24.050781 -17.453125 24.5625 -17.015625 C 25.070312 -16.578125 25.328125 -15.960938 25.328125 -15.171875 C 25.328125 -14.472656 25.203125 -13.546875 24.953125 -12.390625 C 24.703125 -11.242188 24.441406 -10.101562 24.171875 -8.96875 C 23.953125 -8 23.75 -7.113281 23.5625 -6.3125 C 23.382812 -5.507812 23.296875 -4.941406 23.296875 -4.609375 C 23.296875 -4.285156 23.390625 -4.054688 23.578125 -3.921875 C 23.773438 -3.785156 24.117188 -3.71875 24.609375 -3.71875 C 25.898438 -3.71875 27.414062 -3.945312 29.15625 -4.40625 C 30.894531 -4.875 32.796875 -5.535156 34.859375 -6.390625 C 36.921875 -7.253906 39.070312 -8.289062 41.3125 -9.5 C 43.5625 -10.707031 45.816406 -12.054688 48.078125 -13.546875 C 48.285156 -13.679688 48.507812 -13.75 48.75 -13.75 C 49.09375 -13.75 49.378906 -13.628906 49.609375 -13.390625 C 49.847656 -13.148438 49.96875 -12.863281 49.96875 -12.53125 C 49.96875 -12.050781 49.78125 -11.710938 49.40625 -11.515625 C 47.03125 -9.953125 44.664062 -8.539062 42.3125 -7.28125 C 39.96875 -6.019531 37.710938 -4.941406 35.546875 -4.046875 C 33.378906 -3.148438 31.363281 -2.460938 29.5 -1.984375 C 27.644531 -1.515625 26.015625 -1.28125 24.609375 -1.28125 C 23.441406 -1.28125 22.523438 -1.570312 21.859375 -2.15625 C 21.191406 -2.75 20.859375 -3.566406 20.859375 -4.609375 C 20.859375 -5.078125 20.957031 -5.769531 21.15625 -6.6875 C 21.363281 -7.601562 21.582031 -8.554688 21.8125 -9.546875 C 22.082031 -10.671875 22.328125 -11.734375 22.546875 -12.734375 C 22.773438 -13.742188 22.890625 -14.394531 22.890625 -14.6875 C 22.890625 -15.050781 22.707031 -15.234375 22.34375 -15.234375 C 21.582031 -15.234375 20.632812 -15.015625 19.5 -14.578125 C 18.375 -14.140625 17.132812 -13.550781 15.78125 -12.8125 C 14.425781 -12.082031 13.019531 -11.257812 11.5625 -10.34375 C 10.101562 -9.425781 8.65625 -8.484375 7.21875 -7.515625 C 5.789062 -6.546875 4.429688 -5.601562 3.140625 -4.6875 C 1.859375 -3.769531 0.722656 -2.953125 -0.265625 -2.234375 C -0.429688 -2.117188 -0.585938 -2.007812 -0.734375 -1.90625 C -0.878906 -1.8125 -1.019531 -1.707031 -1.15625 -1.59375 C -2.125 -0.875 -2.828125 -0.382812 -3.265625 -0.125 C -3.703125 0.132812 -4.046875 0.265625 -4.296875 0.265625 Z M -4.296875 0.265625 "/></g></g></g><g fill="#000000" fill-opacity="1"><g transform="translate(195.533035, 211.413545)"><g><path d="M 44.96875 -13.78125 C 45.300781 -13.78125 45.585938 -13.660156 45.828125 -13.421875 C 46.066406 -13.179688 46.1875 -12.894531 46.1875 -12.5625 C 46.1875 -12.132812 45.992188 -11.785156 45.609375 -11.515625 C 43.503906 -10.085938 41.304688 -8.757812 39.015625 -7.53125 C 36.734375 -6.300781 34.445312 -5.195312 32.15625 -4.21875 C 29.863281 -3.238281 27.664062 -2.398438 25.5625 -1.703125 C 23.46875 -1.015625 21.554688 -0.484375 19.828125 -0.109375 C 18.097656 0.253906 16.644531 0.4375 15.46875 0.4375 C 13.570312 0.4375 12.117188 0.0195312 11.109375 -0.8125 C 10.109375 -1.644531 9.609375 -2.851562 9.609375 -4.4375 C 9.609375 -5.613281 10.398438 -7.578125 11.984375 -10.328125 C 12.160156 -10.640625 12.1875 -10.832031 12.0625 -10.90625 C 11.945312 -10.988281 11.765625 -10.910156 11.515625 -10.671875 C 7.492188 -7.117188 4.265625 -4.421875 1.828125 -2.578125 C -0.609375 -0.742188 -2.222656 0.171875 -3.015625 0.171875 C -3.828125 0.171875 -4.46875 -0.0390625 -4.9375 -0.46875 C -5.414062 -0.90625 -5.65625 -1.492188 -5.65625 -2.234375 C -5.65625 -3.222656 -5.378906 -4.28125 -4.828125 -5.40625 C -4.273438 -6.539062 -3.523438 -7.671875 -2.578125 -8.796875 C -1.628906 -9.929688 -0.550781 -11.003906 0.65625 -12.015625 C 1.863281 -13.035156 3.140625 -13.945312 4.484375 -14.75 C 5.828125 -15.550781 7.160156 -16.179688 8.484375 -16.640625 C 9.804688 -17.109375 11.050781 -17.34375 12.21875 -17.34375 C 13.082031 -17.34375 13.921875 -17.179688 14.734375 -16.859375 C 15.359375 -17.453125 16.007812 -18.0625 16.6875 -18.6875 C 17.363281 -19.320312 18.054688 -19.96875 18.765625 -20.625 L 18.6875 -20.59375 C 20.675781 -23.363281 22.867188 -26.316406 25.265625 -29.453125 C 27.671875 -32.585938 30.203125 -35.789062 32.859375 -39.0625 C 35.515625 -42.34375 38.210938 -45.597656 40.953125 -48.828125 C 43.691406 -52.054688 46.394531 -55.15625 49.0625 -58.125 C 51.726562 -61.09375 54.28125 -63.835938 56.71875 -66.359375 C 59.15625 -68.890625 61.382812 -71.101562 63.40625 -73 C 65.425781 -74.894531 67.160156 -76.367188 68.609375 -77.421875 C 70.066406 -78.472656 71.160156 -79 71.890625 -79 C 73.578125 -79 74.421875 -78.21875 74.421875 -76.65625 C 74.421875 -76.132812 73.957031 -75.195312 73.03125 -73.84375 C 72.101562 -72.488281 70.804688 -70.804688 69.140625 -68.796875 C 67.472656 -66.785156 65.503906 -64.519531 63.234375 -62 C 60.960938 -59.488281 58.472656 -56.804688 55.765625 -53.953125 C 53.054688 -51.097656 50.210938 -48.144531 47.234375 -45.09375 C 44.253906 -42.050781 41.210938 -38.988281 38.109375 -35.90625 C 35.003906 -32.820312 31.921875 -29.800781 28.859375 -26.84375 C 25.804688 -23.894531 22.847656 -21.085938 19.984375 -18.421875 C 19.484375 -17.722656 19.003906 -17.039062 18.546875 -16.375 C 18.097656 -15.707031 17.660156 -15.066406 17.234375 -14.453125 C 17.410156 -14.097656 17.523438 -13.722656 17.578125 -13.328125 C 17.640625 -12.929688 17.648438 -12.539062 17.609375 -12.15625 C 17.585938 -11.84375 17.457031 -11.570312 17.21875 -11.34375 C 16.976562 -11.113281 16.703125 -11 16.390625 -11 C 15.929688 -11 15.59375 -11.179688 15.375 -11.546875 C 13.15625 -7.984375 12.046875 -5.613281 12.046875 -4.4375 C 12.046875 -3.582031 12.304688 -2.960938 12.828125 -2.578125 C 13.347656 -2.191406 14.226562 -2 15.46875 -2 C 16.550781 -2 17.910156 -2.175781 19.546875 -2.53125 C 21.191406 -2.894531 23.015625 -3.410156 25.015625 -4.078125 C 27.023438 -4.742188 29.125 -5.550781 31.3125 -6.5 C 33.507812 -7.445312 35.710938 -8.519531 37.921875 -9.71875 C 40.128906 -10.914062 42.25 -12.203125 44.28125 -13.578125 C 44.46875 -13.710938 44.695312 -13.78125 44.96875 -13.78125 Z M 71.890625 -76.5625 C 71.410156 -76.5625 70.582031 -76.113281 69.40625 -75.21875 C 68.238281 -74.320312 66.789062 -73.050781 65.0625 -71.40625 C 63.332031 -69.757812 61.390625 -67.816406 59.234375 -65.578125 C 57.078125 -63.347656 54.78125 -60.878906 52.34375 -58.171875 C 49.90625 -55.460938 47.382812 -52.59375 44.78125 -49.5625 C 42.175781 -46.539062 39.550781 -43.425781 36.90625 -40.21875 C 34.257812 -37.019531 31.675781 -33.804688 29.15625 -30.578125 C 30.59375 -31.972656 32.210938 -33.566406 34.015625 -35.359375 C 35.828125 -37.160156 37.75 -39.085938 39.78125 -41.140625 C 41.8125 -43.191406 43.890625 -45.304688 46.015625 -47.484375 C 48.140625 -49.660156 50.253906 -51.835938 52.359375 -54.015625 C 54.472656 -56.203125 56.492188 -58.320312 58.421875 -60.375 C 60.347656 -62.425781 62.140625 -64.351562 63.796875 -66.15625 C 65.460938 -67.96875 66.910156 -69.585938 68.140625 -71.015625 C 69.367188 -72.453125 70.328125 -73.632812 71.015625 -74.5625 C 71.703125 -75.488281 72.046875 -76.097656 72.046875 -76.390625 C 72.046875 -76.503906 71.992188 -76.5625 71.890625 -76.5625 Z M -2.875 -2.265625 C -2.382812 -2.265625 -0.796875 -3.359375 1.890625 -5.546875 C 4.578125 -7.742188 8.132812 -10.859375 12.5625 -14.890625 L 12.21875 -14.890625 C 11.289062 -14.890625 10.265625 -14.6875 9.140625 -14.28125 C 8.015625 -13.875 6.875 -13.328125 5.71875 -12.640625 C 4.570312 -11.953125 3.46875 -11.179688 2.40625 -10.328125 C 1.34375 -9.472656 0.390625 -8.582031 -0.453125 -7.65625 C -1.304688 -6.726562 -1.976562 -5.820312 -2.46875 -4.9375 C -2.96875 -4.0625 -3.21875 -3.273438 -3.21875 -2.578125 C -3.21875 -2.367188 -3.101562 -2.265625 -2.875 -2.265625 Z M -2.875 -2.265625 "/></g></g></g><g fill="#000000" fill-opacity="1"><g transform="translate(237.007623, 211.413545)"><g><path d="M 34.9375 -13.75 C 35.28125 -13.75 35.566406 -13.628906 35.796875 -13.390625 C 36.035156 -13.148438 36.15625 -12.863281 36.15625 -12.53125 C 36.15625 -12.101562 35.988281 -11.773438 35.65625 -11.546875 C 33.488281 -9.960938 31.195312 -8.515625 28.78125 -7.203125 C 26.363281 -5.898438 23.957031 -4.75 21.5625 -3.75 C 19.175781 -2.757812 16.910156 -1.929688 14.765625 -1.265625 C 12.617188 -0.597656 10.707031 -0.09375 9.03125 0.25 C 7.363281 0.601562 6.054688 0.78125 5.109375 0.78125 C 2.722656 0.78125 0.867188 0.34375 -0.453125 -0.53125 C -1.773438 -1.414062 -2.4375 -2.660156 -2.4375 -4.265625 C -2.4375 -5.328125 -2.160156 -6.457031 -1.609375 -7.65625 C -1.054688 -8.851562 -0.316406 -10.019531 0.609375 -11.15625 C 1.535156 -12.289062 2.566406 -13.328125 3.703125 -14.265625 C 4.847656 -15.203125 6.007812 -15.945312 7.1875 -16.5 C 8.375 -17.0625 9.5 -17.34375 10.5625 -17.34375 C 11.507812 -17.34375 12.269531 -17.09375 12.84375 -16.59375 C 13.425781 -16.09375 13.71875 -15.4375 13.71875 -14.625 C 13.71875 -14.0625 13.519531 -13.503906 13.125 -12.953125 C 12.726562 -12.398438 12.195312 -11.890625 11.53125 -11.421875 C 10.863281 -10.960938 10.140625 -10.59375 9.359375 -10.3125 C 8.578125 -10.03125 7.796875 -9.890625 7.015625 -9.890625 C 5.453125 -9.890625 4.195312 -10.09375 3.25 -10.5 C 2.238281 -9.394531 1.441406 -8.285156 0.859375 -7.171875 C 0.285156 -6.066406 0 -5.097656 0 -4.265625 C 0 -2.523438 1.703125 -1.65625 5.109375 -1.65625 C 5.992188 -1.65625 7.222656 -1.816406 8.796875 -2.140625 C 10.378906 -2.472656 12.1875 -2.960938 14.21875 -3.609375 C 16.25 -4.253906 18.410156 -5.054688 20.703125 -6.015625 C 22.992188 -6.972656 25.296875 -8.078125 27.609375 -9.328125 C 29.921875 -10.578125 32.128906 -11.972656 34.234375 -13.515625 C 34.410156 -13.671875 34.644531 -13.75 34.9375 -13.75 Z M 11.28125 -14.625 C 11.28125 -14.71875 11.238281 -14.785156 11.15625 -14.828125 C 11.070312 -14.867188 10.875 -14.890625 10.5625 -14.890625 C 9.863281 -14.890625 9.050781 -14.675781 8.125 -14.25 C 7.195312 -13.820312 6.25 -13.210938 5.28125 -12.421875 C 5.757812 -12.359375 6.335938 -12.328125 7.015625 -12.328125 C 7.867188 -12.328125 8.609375 -12.46875 9.234375 -12.75 C 9.867188 -13.03125 10.367188 -13.347656 10.734375 -13.703125 C 11.097656 -14.066406 11.28125 -14.375 11.28125 -14.625 Z M 11.28125 -14.625 "/></g></g></g><g fill="#000000" fill-opacity="1"><g transform="translate(268.49446, 211.413545)"><g><path d="M 1.96875 16.859375 C 0.519531 16.859375 -0.582031 16.476562 -1.34375 15.71875 C -2.113281 14.96875 -2.5 13.90625 -2.5 12.53125 C -2.5 11.46875 -2.191406 10.289062 -1.578125 9 C -0.972656 7.71875 -0.144531 6.367188 0.90625 4.953125 C 1.96875 3.546875 3.175781 2.09375 4.53125 0.59375 C 5.882812 -0.90625 7.316406 -2.414062 8.828125 -3.9375 C 10.347656 -5.46875 11.863281 -6.976562 13.375 -8.46875 C 15.039062 -10.09375 16.625 -11.664062 18.125 -13.1875 C 19.632812 -14.707031 20.96875 -16.128906 22.125 -17.453125 C 23.289062 -18.773438 24.210938 -19.957031 24.890625 -21 C 25.566406 -22.050781 25.90625 -22.929688 25.90625 -23.640625 C 25.90625 -24.085938 25.613281 -24.59375 25.03125 -25.15625 C 24.457031 -25.71875 23.472656 -26.460938 22.078125 -27.390625 C 20.203125 -25.453125 18.226562 -23.507812 16.15625 -21.5625 C 14.09375 -19.625 12.035156 -17.789062 9.984375 -16.0625 C 7.929688 -14.332031 5.976562 -12.816406 4.125 -11.515625 C 3.945312 -11.359375 3.710938 -11.28125 3.421875 -11.28125 C 3.078125 -11.28125 2.785156 -11.394531 2.546875 -11.625 C 2.316406 -11.863281 2.203125 -12.15625 2.203125 -12.5 C 2.203125 -12.925781 2.382812 -13.265625 2.75 -13.515625 C 4.78125 -14.929688 6.796875 -16.476562 8.796875 -18.15625 C 10.804688 -19.84375 12.765625 -21.582031 14.671875 -23.375 C 16.585938 -25.175781 18.390625 -26.957031 20.078125 -28.71875 C 18.523438 -29.75 17.445312 -30.585938 16.84375 -31.234375 C 16.25 -31.878906 15.953125 -32.53125 15.953125 -33.1875 C 15.953125 -33.832031 16.222656 -34.570312 16.765625 -35.40625 C 17.304688 -36.25 18.023438 -37.125 18.921875 -38.03125 C 19.828125 -38.945312 20.835938 -39.835938 21.953125 -40.703125 C 23.078125 -41.578125 24.226562 -42.359375 25.40625 -43.046875 C 26.59375 -43.734375 27.734375 -44.285156 28.828125 -44.703125 C 29.921875 -45.128906 30.875 -45.34375 31.6875 -45.34375 C 32.34375 -45.34375 32.859375 -45.148438 33.234375 -44.765625 C 33.609375 -44.378906 33.796875 -43.847656 33.796875 -43.171875 C 33.796875 -42.472656 33.398438 -41.453125 32.609375 -40.109375 C 31.816406 -38.765625 30.671875 -37.164062 29.171875 -35.3125 C 27.671875 -33.457031 25.867188 -31.40625 23.765625 -29.15625 C 24.015625 -28.90625 24.273438 -28.660156 24.546875 -28.421875 C 24.816406 -28.179688 25.078125 -27.960938 25.328125 -27.765625 C 26.179688 -26.992188 26.894531 -26.289062 27.46875 -25.65625 C 28.050781 -25.03125 28.34375 -24.359375 28.34375 -23.640625 C 28.34375 -22.660156 27.96875 -21.539062 27.21875 -20.28125 C 26.476562 -19.019531 25.472656 -17.65625 24.203125 -16.1875 C 22.941406 -14.71875 21.523438 -13.179688 19.953125 -11.578125 C 18.390625 -9.972656 16.769531 -8.359375 15.09375 -6.734375 C 13.226562 -4.890625 11.390625 -3.050781 9.578125 -1.21875 C 7.773438 0.613281 6.144531 2.367188 4.6875 4.046875 C 3.226562 5.722656 2.070312 7.285156 1.21875 8.734375 C 0.363281 10.179688 -0.0625 11.445312 -0.0625 12.53125 C -0.0625 13.226562 0.0820312 13.71875 0.375 14 C 0.664062 14.28125 1.195312 14.421875 1.96875 14.421875 C 3.207031 14.421875 4.765625 14.101562 6.640625 13.46875 C 8.515625 12.84375 10.625 11.960938 12.96875 10.828125 C 15.3125 9.703125 17.800781 8.394531 20.4375 6.90625 C 23.082031 5.414062 25.789062 3.816406 28.5625 2.109375 C 31.34375 0.410156 34.109375 -1.335938 36.859375 -3.140625 C 39.617188 -4.953125 42.273438 -6.738281 44.828125 -8.5 C 47.378906 -10.257812 49.75 -11.929688 51.9375 -13.515625 C 52.125 -13.671875 52.363281 -13.75 52.65625 -13.75 C 52.988281 -13.75 53.273438 -13.628906 53.515625 -13.390625 C 53.753906 -13.148438 53.875 -12.863281 53.875 -12.53125 C 53.875 -12.101562 53.703125 -11.773438 53.359375 -11.546875 C 51.171875 -9.960938 48.785156 -8.28125 46.203125 -6.5 C 43.617188 -4.71875 40.925781 -2.90625 38.125 -1.0625 C 35.320312 0.769531 32.5 2.554688 29.65625 4.296875 C 26.8125 6.035156 24.03125 7.660156 21.3125 9.171875 C 18.59375 10.679688 16.015625 12.007812 13.578125 13.15625 C 11.140625 14.3125 8.925781 15.21875 6.9375 15.875 C 4.957031 16.53125 3.300781 16.859375 1.96875 16.859375 Z M 21.734375 -30.5 C 22.546875 -31.363281 23.4375 -32.347656 24.40625 -33.453125 C 25.382812 -34.554688 26.335938 -35.675781 27.265625 -36.8125 C 28.203125 -37.957031 29.015625 -39.007812 29.703125 -39.96875 C 30.398438 -40.925781 30.859375 -41.675781 31.078125 -42.21875 C 31.148438 -42.425781 31.128906 -42.570312 31.015625 -42.65625 C 30.898438 -42.75 30.726562 -42.773438 30.5 -42.734375 C 29.914062 -42.617188 29.210938 -42.351562 28.390625 -41.9375 C 27.566406 -41.519531 26.703125 -41.007812 25.796875 -40.40625 C 24.898438 -39.8125 24.007812 -39.175781 23.125 -38.5 C 22.25 -37.820312 21.453125 -37.144531 20.734375 -36.46875 C 20.023438 -35.789062 19.457031 -35.160156 19.03125 -34.578125 C 18.601562 -34.003906 18.390625 -33.539062 18.390625 -33.1875 C 18.390625 -32.914062 19.503906 -32.019531 21.734375 -30.5 Z M 21.734375 -30.5 "/></g></g></g><g fill="#000000" fill-opacity="1"><g transform="translate(112.089578, 270.320315)"><g><path d="M 7.515625 0.109375 C 6.265625 0.109375 5.140625 -0.164062 4.140625 -0.71875 C 3.140625 -1.269531 2.351562 -2.03125 1.78125 -3 C 1.21875 -3.976562 0.9375 -5.070312 0.9375 -6.28125 C 0.9375 -7.5 1.21875 -8.59375 1.78125 -9.5625 C 2.351562 -10.539062 3.140625 -11.304688 4.140625 -11.859375 C 5.148438 -12.410156 6.28125 -12.6875 7.53125 -12.6875 C 8.46875 -12.6875 9.328125 -12.53125 10.109375 -12.21875 C 10.898438 -11.90625 11.570312 -11.453125 12.125 -10.859375 L 11.28125 -10.015625 C 10.300781 -11.003906 9.0625 -11.5 7.5625 -11.5 C 6.570312 -11.5 5.664062 -11.269531 4.84375 -10.8125 C 4.03125 -10.363281 3.394531 -9.742188 2.9375 -8.953125 C 2.476562 -8.160156 2.25 -7.269531 2.25 -6.28125 C 2.25 -5.300781 2.476562 -4.414062 2.9375 -3.625 C 3.394531 -2.832031 4.03125 -2.207031 4.84375 -1.75 C 5.664062 -1.300781 6.570312 -1.078125 7.5625 -1.078125 C 9.070312 -1.078125 10.3125 -1.582031 11.28125 -2.59375 L 12.125 -1.75 C 11.570312 -1.144531 10.894531 -0.679688 10.09375 -0.359375 C 9.300781 -0.046875 8.441406 0.109375 7.515625 0.109375 Z M 7.515625 0.109375 "/></g></g></g><g fill="#000000" fill-opacity="1"><g transform="translate(125.89603, 270.320315)"><g><path d="M 7.109375 0.109375 C 5.484375 0.109375 4.210938 -0.351562 3.296875 -1.28125 C 2.390625 -2.21875 1.9375 -3.582031 1.9375 -5.375 L 1.9375 -12.578125 L 3.265625 -12.578125 L 3.265625 -5.421875 C 3.265625 -3.960938 3.59375 -2.875 4.25 -2.15625 C 4.914062 -1.4375 5.867188 -1.078125 7.109375 -1.078125 C 8.367188 -1.078125 9.328125 -1.4375 9.984375 -2.15625 C 10.648438 -2.875 10.984375 -3.960938 10.984375 -5.421875 L 10.984375 -12.578125 L 12.265625 -12.578125 L 12.265625 -5.375 C 12.265625 -3.582031 11.8125 -2.21875 10.90625 -1.28125 C 10.007812 -0.351562 8.742188 0.109375 7.109375 0.109375 Z M 7.109375 0.109375 "/></g></g></g><g fill="#000000" fill-opacity="1"><g transform="translate(141.013059, 270.320315)"><g><path d="M 5.515625 0.109375 C 4.578125 0.109375 3.679688 -0.0390625 2.828125 -0.34375 C 1.972656 -0.644531 1.3125 -1.039062 0.84375 -1.53125 L 1.359375 -2.546875 C 1.816406 -2.097656 2.421875 -1.734375 3.171875 -1.453125 C 3.929688 -1.171875 4.710938 -1.03125 5.515625 -1.03125 C 6.640625 -1.03125 7.484375 -1.234375 8.046875 -1.640625 C 8.609375 -2.054688 8.890625 -2.59375 8.890625 -3.25 C 8.890625 -3.75 8.738281 -4.148438 8.4375 -4.453125 C 8.132812 -4.753906 7.757812 -4.984375 7.3125 -5.140625 C 6.863281 -5.304688 6.25 -5.484375 5.46875 -5.671875 C 4.519531 -5.910156 3.765625 -6.140625 3.203125 -6.359375 C 2.640625 -6.585938 2.15625 -6.925781 1.75 -7.375 C 1.351562 -7.832031 1.15625 -8.453125 1.15625 -9.234375 C 1.15625 -9.867188 1.320312 -10.445312 1.65625 -10.96875 C 1.988281 -11.488281 2.5 -11.90625 3.1875 -12.21875 C 3.882812 -12.53125 4.75 -12.6875 5.78125 -12.6875 C 6.5 -12.6875 7.203125 -12.585938 7.890625 -12.390625 C 8.585938 -12.191406 9.1875 -11.921875 9.6875 -11.578125 L 9.234375 -10.515625 C 8.703125 -10.859375 8.132812 -11.113281 7.53125 -11.28125 C 6.9375 -11.457031 6.351562 -11.546875 5.78125 -11.546875 C 4.675781 -11.546875 3.847656 -11.332031 3.296875 -10.90625 C 2.742188 -10.488281 2.46875 -9.941406 2.46875 -9.265625 C 2.46875 -8.765625 2.617188 -8.359375 2.921875 -8.046875 C 3.222656 -7.742188 3.601562 -7.507812 4.0625 -7.34375 C 4.53125 -7.1875 5.148438 -7.015625 5.921875 -6.828125 C 6.847656 -6.597656 7.59375 -6.375 8.15625 -6.15625 C 8.726562 -5.9375 9.210938 -5.597656 9.609375 -5.140625 C 10.003906 -4.691406 10.203125 -4.085938 10.203125 -3.328125 C 10.203125 -2.691406 10.03125 -2.113281 9.6875 -1.59375 C 9.351562 -1.070312 8.832031 -0.65625 8.125 -0.34375 C 7.414062 -0.0390625 6.546875 0.109375 5.515625 0.109375 Z M 5.515625 0.109375 "/></g></g></g><g fill="#000000" fill-opacity="1"><g transform="translate(152.952396, 270.320315)"><g><path d="M 4.484375 -11.421875 L 0.078125 -11.421875 L 0.078125 -12.578125 L 10.234375 -12.578125 L 10.234375 -11.421875 L 5.828125 -11.421875 L 5.828125 0 L 4.484375 0 Z M 4.484375 -11.421875 "/></g></g></g><g fill="#000000" fill-opacity="1"><g transform="translate(164.155649, 270.320315)"><g><path d="M 7.546875 0.109375 C 6.296875 0.109375 5.164062 -0.164062 4.15625 -0.71875 C 3.144531 -1.28125 2.351562 -2.046875 1.78125 -3.015625 C 1.21875 -3.984375 0.9375 -5.070312 0.9375 -6.28125 C 0.9375 -7.5 1.21875 -8.59375 1.78125 -9.5625 C 2.351562 -10.53125 3.144531 -11.289062 4.15625 -11.84375 C 5.164062 -12.40625 6.296875 -12.6875 7.546875 -12.6875 C 8.796875 -12.6875 9.921875 -12.410156 10.921875 -11.859375 C 11.921875 -11.304688 12.707031 -10.539062 13.28125 -9.5625 C 13.851562 -8.59375 14.140625 -7.5 14.140625 -6.28125 C 14.140625 -5.070312 13.851562 -3.976562 13.28125 -3 C 12.707031 -2.03125 11.921875 -1.269531 10.921875 -0.71875 C 9.921875 -0.164062 8.796875 0.109375 7.546875 0.109375 Z M 7.546875 -1.078125 C 8.535156 -1.078125 9.429688 -1.300781 10.234375 -1.75 C 11.046875 -2.195312 11.675781 -2.816406 12.125 -3.609375 C 12.582031 -4.410156 12.8125 -5.300781 12.8125 -6.28125 C 12.8125 -7.269531 12.582031 -8.160156 12.125 -8.953125 C 11.675781 -9.753906 11.046875 -10.378906 10.234375 -10.828125 C 9.429688 -11.273438 8.535156 -11.5 7.546875 -11.5 C 6.554688 -11.5 5.65625 -11.273438 4.84375 -10.828125 C 4.03125 -10.378906 3.394531 -9.753906 2.9375 -8.953125 C 2.476562 -8.160156 2.25 -7.269531 2.25 -6.28125 C 2.25 -5.300781 2.476562 -4.410156 2.9375 -3.609375 C 3.394531 -2.816406 4.03125 -2.195312 4.84375 -1.75 C 5.65625 -1.300781 6.554688 -1.078125 7.546875 -1.078125 Z M 7.546875 -1.078125 "/></g></g></g><g fill="#000000" fill-opacity="1"><g transform="translate(180.11647, 270.320315)"><g><path d="M 15.109375 -12.578125 L 15.109375 0 L 13.828125 0 L 13.828125 -10.0625 L 8.890625 -1.59375 L 8.265625 -1.59375 L 3.328125 -10.015625 L 3.328125 0 L 2.046875 0 L 2.046875 -12.578125 L 3.140625 -12.578125 L 8.609375 -3.25 L 14.015625 -12.578125 Z M 15.109375 -12.578125 "/></g></g></g><g fill="#000000" fill-opacity="1"><g transform="translate(198.159854, 270.320315)"><g/></g></g><g fill="#000000" fill-opacity="1"><g transform="translate(203.761753, 270.320315)"><g><path d="M 9.96875 -6.484375 C 10.800781 -6.304688 11.441406 -5.953125 11.890625 -5.421875 C 12.335938 -4.890625 12.5625 -4.203125 12.5625 -3.359375 C 12.5625 -2.285156 12.160156 -1.457031 11.359375 -0.875 C 10.566406 -0.289062 9.390625 0 7.828125 0 L 2.046875 0 L 2.046875 -12.578125 L 7.46875 -12.578125 C 8.875 -12.578125 9.960938 -12.296875 10.734375 -11.734375 C 11.503906 -11.171875 11.890625 -10.375 11.890625 -9.34375 C 11.890625 -8.644531 11.71875 -8.050781 11.375 -7.5625 C 11.039062 -7.082031 10.570312 -6.722656 9.96875 -6.484375 Z M 3.375 -11.484375 L 3.375 -6.921875 L 7.390625 -6.921875 C 8.398438 -6.921875 9.179688 -7.113281 9.734375 -7.5 C 10.285156 -7.882812 10.5625 -8.453125 10.5625 -9.203125 C 10.5625 -9.941406 10.285156 -10.503906 9.734375 -10.890625 C 9.179688 -11.285156 8.398438 -11.484375 7.390625 -11.484375 Z M 7.8125 -1.09375 C 8.9375 -1.09375 9.785156 -1.285156 10.359375 -1.671875 C 10.941406 -2.054688 11.234375 -2.65625 11.234375 -3.46875 C 11.234375 -5.039062 10.09375 -5.828125 7.8125 -5.828125 L 3.375 -5.828125 L 3.375 -1.09375 Z M 7.8125 -1.09375 "/></g></g></g><g fill="#000000" fill-opacity="1"><g transform="translate(218.196569, 270.320315)"><g><path d="M 7.546875 0.109375 C 6.296875 0.109375 5.164062 -0.164062 4.15625 -0.71875 C 3.144531 -1.28125 2.351562 -2.046875 1.78125 -3.015625 C 1.21875 -3.984375 0.9375 -5.070312 0.9375 -6.28125 C 0.9375 -7.5 1.21875 -8.59375 1.78125 -9.5625 C 2.351562 -10.53125 3.144531 -11.289062 4.15625 -11.84375 C 5.164062 -12.40625 6.296875 -12.6875 7.546875 -12.6875 C 8.796875 -12.6875 9.921875 -12.410156 10.921875 -11.859375 C 11.921875 -11.304688 12.707031 -10.539062 13.28125 -9.5625 C 13.851562 -8.59375 14.140625 -7.5 14.140625 -6.28125 C 14.140625 -5.070312 13.851562 -3.976562 13.28125 -3 C 12.707031 -2.03125 11.921875 -1.269531 10.921875 -0.71875 C 9.921875 -0.164062 8.796875 0.109375 7.546875 0.109375 Z M 7.546875 -1.078125 C 8.535156 -1.078125 9.429688 -1.300781 10.234375 -1.75 C 11.046875 -2.195312 11.675781 -2.816406 12.125 -3.609375 C 12.582031 -4.410156 12.8125 -5.300781 12.8125 -6.28125 C 12.8125 -7.269531 12.582031 -8.160156 12.125 -8.953125 C 11.675781 -9.753906 11.046875 -10.378906 10.234375 -10.828125 C 9.429688 -11.273438 8.535156 -11.5 7.546875 -11.5 C 6.554688 -11.5 5.65625 -11.273438 4.84375 -10.828125 C 4.03125 -10.378906 3.394531 -9.753906 2.9375 -8.953125 C 2.476562 -8.160156 2.25 -7.269531 2.25 -6.28125 C 2.25 -5.300781 2.476562 -4.410156 2.9375 -3.609375 C 3.394531 -2.816406 4.03125 -2.195312 4.84375 -1.75 C 5.65625 -1.300781 6.554688 -1.078125 7.546875 -1.078125 Z M 7.546875 -1.078125 "/></g></g></g><g fill="#000000" fill-opacity="1"><g transform="translate(234.157391, 270.320315)"><g><path d="M 7.546875 0.109375 C 6.296875 0.109375 5.164062 -0.164062 4.15625 -0.71875 C 3.144531 -1.28125 2.351562 -2.046875 1.78125 -3.015625 C 1.21875 -3.984375 0.9375 -5.070312 0.9375 -6.28125 C 0.9375 -7.5 1.21875 -8.59375 1.78125 -9.5625 C 2.351562 -10.53125 3.144531 -11.289062 4.15625 -11.84375 C 5.164062 -12.40625 6.296875 -12.6875 7.546875 -12.6875 C 8.796875 -12.6875 9.921875 -12.410156 10.921875 -11.859375 C 11.921875 -11.304688 12.707031 -10.539062 13.28125 -9.5625 C 13.851562 -8.59375 14.140625 -7.5 14.140625 -6.28125 C 14.140625 -5.070312 13.851562 -3.976562 13.28125 -3 C 12.707031 -2.03125 11.921875 -1.269531 10.921875 -0.71875 C 9.921875 -0.164062 8.796875 0.109375 7.546875 0.109375 Z M 7.546875 -1.078125 C 8.535156 -1.078125 9.429688 -1.300781 10.234375 -1.75 C 11.046875 -2.195312 11.675781 -2.816406 12.125 -3.609375 C 12.582031 -4.410156 12.8125 -5.300781 12.8125 -6.28125 C 12.8125 -7.269531 12.582031 -8.160156 12.125 -8.953125 C 11.675781 -9.753906 11.046875 -10.378906 10.234375 -10.828125 C 9.429688 -11.273438 8.535156 -11.5 7.546875 -11.5 C 6.554688 -11.5 5.65625 -11.273438 4.84375 -10.828125 C 4.03125 -10.378906 3.394531 -9.753906 2.9375 -8.953125 C 2.476562 -8.160156 2.25 -7.269531 2.25 -6.28125 C 2.25 -5.300781 2.476562 -4.410156 2.9375 -3.609375 C 3.394531 -2.816406 4.03125 -2.195312 4.84375 -1.75 C 5.65625 -1.300781 6.554688 -1.078125 7.546875 -1.078125 Z M 7.546875 -1.078125 "/></g></g></g><g fill="#000000" fill-opacity="1"><g transform="translate(250.118212, 270.320315)"><g><path d="M 5.953125 -5.90625 L 3.375 -3.3125 L 3.375 0 L 2.046875 0 L 2.046875 -12.578125 L 3.375 -12.578125 L 3.375 -4.984375 L 10.765625 -12.578125 L 12.296875 -12.578125 L 6.84375 -6.875 L 12.671875 0 L 11.09375 0 Z M 5.953125 -5.90625 "/></g></g></g><g fill="#000000" fill-opacity="1"><g transform="translate(146.976294, 295.070313)"><g><path d="M 7.515625 0.109375 C 6.265625 0.109375 5.140625 -0.164062 4.140625 -0.71875 C 3.140625 -1.269531 2.351562 -2.03125 1.78125 -3 C 1.21875 -3.976562 0.9375 -5.070312 0.9375 -6.28125 C 0.9375 -7.5 1.21875 -8.59375 1.78125 -9.5625 C 2.351562 -10.539062 3.140625 -11.304688 4.140625 -11.859375 C 5.148438 -12.410156 6.28125 -12.6875 7.53125 -12.6875 C 8.46875 -12.6875 9.328125 -12.53125 10.109375 -12.21875 C 10.898438 -11.90625 11.570312 -11.453125 12.125 -10.859375 L 11.28125 -10.015625 C 10.300781 -11.003906 9.0625 -11.5 7.5625 -11.5 C 6.570312 -11.5 5.664062 -11.269531 4.84375 -10.8125 C 4.03125 -10.363281 3.394531 -9.742188 2.9375 -8.953125 C 2.476562 -8.160156 2.25 -7.269531 2.25 -6.28125 C 2.25 -5.300781 2.476562 -4.414062 2.9375 -3.625 C 3.394531 -2.832031 4.03125 -2.207031 4.84375 -1.75 C 5.664062 -1.300781 6.570312 -1.078125 7.5625 -1.078125 C 9.070312 -1.078125 10.3125 -1.582031 11.28125 -2.59375 L 12.125 -1.75 C 11.570312 -1.144531 10.894531 -0.679688 10.09375 -0.359375 C 9.300781 -0.046875 8.441406 0.109375 7.515625 0.109375 Z M 7.515625 0.109375 "/></g></g></g><g fill="#000000" fill-opacity="1"><g transform="translate(160.782746, 295.070313)"><g><path d="M 7.546875 0.109375 C 6.296875 0.109375 5.164062 -0.164062 4.15625 -0.71875 C 3.144531 -1.28125 2.351562 -2.046875 1.78125 -3.015625 C 1.21875 -3.984375 0.9375 -5.070312 0.9375 -6.28125 C 0.9375 -7.5 1.21875 -8.59375 1.78125 -9.5625 C 2.351562 -10.53125 3.144531 -11.289062 4.15625 -11.84375 C 5.164062 -12.40625 6.296875 -12.6875 7.546875 -12.6875 C 8.796875 -12.6875 9.921875 -12.410156 10.921875 -11.859375 C 11.921875 -11.304688 12.707031 -10.539062 13.28125 -9.5625 C 13.851562 -8.59375 14.140625 -7.5 14.140625 -6.28125 C 14.140625 -5.070312 13.851562 -3.976562 13.28125 -3 C 12.707031 -2.03125 11.921875 -1.269531 10.921875 -0.71875 C 9.921875 -0.164062 8.796875 0.109375 7.546875 0.109375 Z M 7.546875 -1.078125 C 8.535156 -1.078125 9.429688 -1.300781 10.234375 -1.75 C 11.046875 -2.195312 11.675781 -2.816406 12.125 -3.609375 C 12.582031 -4.410156 12.8125 -5.300781 12.8125 -6.28125 C 12.8125 -7.269531 12.582031 -8.160156 12.125 -8.953125 C 11.675781 -9.753906 11.046875 -10.378906 10.234375 -10.828125 C 9.429688 -11.273438 8.535156 -11.5 7.546875 -11.5 C 6.554688 -11.5 5.65625 -11.273438 4.84375 -10.828125 C 4.03125 -10.378906 3.394531 -9.753906 2.9375 -8.953125 C 2.476562 -8.160156 2.25 -7.269531 2.25 -6.28125 C 2.25 -5.300781 2.476562 -4.410156 2.9375 -3.609375 C 3.394531 -2.816406 4.03125 -2.195312 4.84375 -1.75 C 5.65625 -1.300781 6.554688 -1.078125 7.546875 -1.078125 Z M 7.546875 -1.078125 "/></g></g></g><g fill="#000000" fill-opacity="1"><g transform="translate(176.743571, 295.070313)"><g><path d="M 12.5 -12.578125 L 6.9375 0 L 5.625 0 L 0.046875 -12.578125 L 1.484375 -12.578125 L 6.3125 -1.65625 L 11.15625 -12.578125 Z M 12.5 -12.578125 "/></g></g></g><g fill="#000000" fill-opacity="1"><g transform="translate(190.173009, 295.070313)"><g><path d="M 10.9375 -1.15625 L 10.9375 0 L 2.046875 0 L 2.046875 -12.578125 L 10.671875 -12.578125 L 10.671875 -11.421875 L 3.375 -11.421875 L 3.375 -6.953125 L 9.875 -6.953125 L 9.875 -5.828125 L 3.375 -5.828125 L 3.375 -1.15625 Z M 10.9375 -1.15625 "/></g></g></g><g fill="#000000" fill-opacity="1"><g transform="translate(203.081809, 295.070313)"><g><path d="M 10.640625 0 L 7.765625 -4.046875 C 7.441406 -4.003906 7.101562 -3.984375 6.75 -3.984375 L 3.375 -3.984375 L 3.375 0 L 2.046875 0 L 2.046875 -12.578125 L 6.75 -12.578125 C 8.351562 -12.578125 9.609375 -12.191406 10.515625 -11.421875 C 11.429688 -10.660156 11.890625 -9.609375 11.890625 -8.265625 C 11.890625 -7.285156 11.640625 -6.457031 11.140625 -5.78125 C 10.648438 -5.101562 9.941406 -4.613281 9.015625 -4.3125 L 12.09375 0 Z M 6.71875 -5.125 C 7.96875 -5.125 8.921875 -5.398438 9.578125 -5.953125 C 10.234375 -6.503906 10.5625 -7.273438 10.5625 -8.265625 C 10.5625 -9.285156 10.234375 -10.066406 9.578125 -10.609375 C 8.921875 -11.148438 7.96875 -11.421875 6.71875 -11.421875 L 3.375 -11.421875 L 3.375 -5.125 Z M 6.71875 -5.125 "/></g></g></g><g fill="#000000" fill-opacity="1"><g transform="translate(216.960081, 295.070313)"><g><path d="M 5.515625 0.109375 C 4.578125 0.109375 3.679688 -0.0390625 2.828125 -0.34375 C 1.972656 -0.644531 1.3125 -1.039062 0.84375 -1.53125 L 1.359375 -2.546875 C 1.816406 -2.097656 2.421875 -1.734375 3.171875 -1.453125 C 3.929688 -1.171875 4.710938 -1.03125 5.515625 -1.03125 C 6.640625 -1.03125 7.484375 -1.234375 8.046875 -1.640625 C 8.609375 -2.054688 8.890625 -2.59375 8.890625 -3.25 C 8.890625 -3.75 8.738281 -4.148438 8.4375 -4.453125 C 8.132812 -4.753906 7.757812 -4.984375 7.3125 -5.140625 C 6.863281 -5.304688 6.25 -5.484375 5.46875 -5.671875 C 4.519531 -5.910156 3.765625 -6.140625 3.203125 -6.359375 C 2.640625 -6.585938 2.15625 -6.925781 1.75 -7.375 C 1.351562 -7.832031 1.15625 -8.453125 1.15625 -9.234375 C 1.15625 -9.867188 1.320312 -10.445312 1.65625 -10.96875 C 1.988281 -11.488281 2.5 -11.90625 3.1875 -12.21875 C 3.882812 -12.53125 4.75 -12.6875 5.78125 -12.6875 C 6.5 -12.6875 7.203125 -12.585938 7.890625 -12.390625 C 8.585938 -12.191406 9.1875 -11.921875 9.6875 -11.578125 L 9.234375 -10.515625 C 8.703125 -10.859375 8.132812 -11.113281 7.53125 -11.28125 C 6.9375 -11.457031 6.351562 -11.546875 5.78125 -11.546875 C 4.675781 -11.546875 3.847656 -11.332031 3.296875 -10.90625 C 2.742188 -10.488281 2.46875 -9.941406 2.46875 -9.265625 C 2.46875 -8.765625 2.617188 -8.359375 2.921875 -8.046875 C 3.222656 -7.742188 3.601562 -7.507812 4.0625 -7.34375 C 4.53125 -7.1875 5.148438 -7.015625 5.921875 -6.828125 C 6.847656 -6.597656 7.59375 -6.375 8.15625 -6.15625 C 8.726562 -5.9375 9.210938 -5.597656 9.609375 -5.140625 C 10.003906 -4.691406 10.203125 -4.085938 10.203125 -3.328125 C 10.203125 -2.691406 10.03125 -2.113281 9.6875 -1.59375 C 9.351562 -1.070312 8.832031 -0.65625 8.125 -0.34375 C 7.414062 -0.0390625 6.546875 0.109375 5.515625 0.109375 Z M 5.515625 0.109375 "/></g></g></g></svg>