<svg xmlns="http://www.w3.org/2000/svg" xmlns:xlink="http://www.w3.org/1999/xlink" width="500" zoomAndPan="magnify" viewBox="0 0 375 149.999998" height="200" preserveAspectRatio="xMidYMid meet" version="1.0"><defs><g/></defs><rect x="-37.5" width="450" fill="#ffffff" y="-15" height="179.999997" fill-opacity="1"/><rect x="-37.5" width="450" fill="#f5f5ef" y="-15" height="179.999997" fill-opacity="1"/><g fill="#000000" fill-opacity="1"><g transform="translate(69.533583, 100.173084)"><g><path d="M 63.484375 -40.078125 C 63.484375 -38.679688 63.160156 -37.304688 62.515625 -35.953125 C 61.867188 -34.609375 60.976562 -33.300781 59.84375 -32.03125 C 58.707031 -30.757812 57.382812 -29.550781 55.875 -28.40625 C 54.363281 -27.257812 52.738281 -26.1875 51 -25.1875 C 49.257812 -24.1875 47.46875 -23.269531 45.625 -22.4375 C 48.1875 -20.9375 49.46875 -18.644531 49.46875 -15.5625 C 49.46875 -13.90625 49.179688 -12.367188 48.609375 -10.953125 L 48.640625 -10.953125 C 50.359375 -10.546875 52.035156 -10.054688 53.671875 -9.484375 C 54.179688 -9.335938 54.4375 -8.988281 54.4375 -8.4375 C 54.4375 -8.132812 54.328125 -7.875 54.109375 -7.65625 C 53.890625 -7.4375 53.628906 -7.328125 53.328125 -7.328125 C 53.203125 -7.328125 53.078125 -7.347656 52.953125 -7.390625 C 52.140625 -7.679688 51.296875 -7.945312 50.421875 -8.1875 C 49.554688 -8.4375 48.65625 -8.664062 47.71875 -8.875 L 47.6875 -8.890625 L 47.6875 -8.875 C 46.738281 -7.175781 45.476562 -5.585938 43.90625 -4.109375 C 42.332031 -2.640625 40.523438 -1.289062 38.484375 -0.0625 C 36.453125 1.164062 34.257812 2.257812 31.90625 3.21875 C 29.550781 4.175781 27.109375 4.988281 24.578125 5.65625 C 22.054688 6.320312 19.519531 6.828125 16.96875 7.171875 C 14.425781 7.523438 11.953125 7.703125 9.546875 7.703125 C 7.847656 7.703125 6.3125 7.597656 4.9375 7.390625 C 3.570312 7.191406 2.375 6.882812 1.34375 6.46875 L 1.3125 6.46875 C 0.820312 7.226562 0.367188 7.960938 -0.046875 8.671875 C -0.460938 9.390625 -0.875 10.109375 -1.28125 10.828125 C -1.488281 11.222656 -1.816406 11.421875 -2.265625 11.421875 C -2.578125 11.421875 -2.835938 11.3125 -3.046875 11.09375 C -3.265625 10.875 -3.375 10.613281 -3.375 10.3125 C -3.375 10.144531 -3.320312 9.957031 -3.21875 9.75 C -2.832031 9.039062 -2.414062 8.328125 -1.96875 7.609375 C -1.53125 6.890625 -1.078125 6.164062 -0.609375 5.4375 C -0.609375 5.4375 -0.613281 5.429688 -0.625 5.421875 C -0.632812 5.410156 -0.640625 5.40625 -0.640625 5.40625 C -2.117188 4.28125 -2.859375 2.878906 -2.859375 1.203125 C -2.859375 0.078125 -2.375 -1.046875 -1.40625 -2.171875 C -0.445312 -3.296875 0.941406 -4.390625 2.765625 -5.453125 C 4.585938 -6.523438 6.773438 -7.507812 9.328125 -8.40625 C 9.429688 -8.488281 9.492188 -8.539062 9.515625 -8.5625 C 11.867188 -11.488281 14.300781 -14.375 16.8125 -17.21875 C 19.332031 -20.0625 21.832031 -22.769531 24.3125 -25.34375 C 26.800781 -27.925781 29.179688 -30.296875 31.453125 -32.453125 C 33.722656 -34.609375 35.800781 -36.472656 37.6875 -38.046875 C 39.582031 -39.617188 41.195312 -40.804688 42.53125 -41.609375 C 42.726562 -41.710938 42.921875 -41.765625 43.109375 -41.765625 C 43.421875 -41.765625 43.679688 -41.65625 43.890625 -41.4375 C 44.109375 -41.21875 44.21875 -40.957031 44.21875 -40.65625 C 44.21875 -40.226562 44.03125 -39.910156 43.65625 -39.703125 C 42.457031 -38.960938 40.992188 -37.890625 39.265625 -36.484375 C 37.535156 -35.085938 35.632812 -33.414062 33.5625 -31.46875 C 31.5 -29.53125 29.328125 -27.394531 27.046875 -25.0625 C 24.765625 -22.738281 22.457031 -20.273438 20.125 -17.671875 C 17.789062 -15.078125 15.507812 -12.421875 13.28125 -9.703125 C 16.539062 -10.617188 19.945312 -11.320312 23.5 -11.8125 C 27.0625 -12.300781 30.550781 -12.546875 33.96875 -12.546875 C 36.175781 -12.546875 38.320312 -12.453125 40.40625 -12.265625 C 42.5 -12.085938 44.503906 -11.804688 46.421875 -11.421875 C 46.441406 -11.421875 46.460938 -11.410156 46.484375 -11.390625 L 46.484375 -11.421875 C 46.734375 -12.085938 46.921875 -12.769531 47.046875 -13.46875 C 47.179688 -14.164062 47.25 -14.863281 47.25 -15.5625 C 47.25 -18.300781 45.828125 -20.191406 42.984375 -21.234375 C 42.941406 -21.253906 42.890625 -21.253906 42.828125 -21.234375 C 40.972656 -20.472656 39.128906 -19.820312 37.296875 -19.28125 C 35.460938 -18.738281 33.726562 -18.320312 32.09375 -18.03125 C 30.457031 -17.75 28.992188 -17.609375 27.703125 -17.609375 C 26.765625 -17.609375 25.988281 -17.832031 25.375 -18.28125 C 24.757812 -18.738281 24.472656 -19.300781 24.515625 -19.96875 C 24.578125 -20.832031 25.128906 -21.597656 26.171875 -22.265625 C 27.210938 -22.929688 28.613281 -23.445312 30.375 -23.8125 C 32.132812 -24.175781 34.117188 -24.359375 36.328125 -24.359375 C 37.617188 -24.359375 38.800781 -24.289062 39.875 -24.15625 C 40.945312 -24.03125 41.921875 -23.84375 42.796875 -23.59375 C 42.898438 -23.570312 42.972656 -23.570312 43.015625 -23.59375 C 44.878906 -24.351562 46.703125 -25.207031 48.484375 -26.15625 C 50.265625 -27.101562 51.925781 -28.113281 53.46875 -29.1875 C 55.007812 -30.269531 56.363281 -31.398438 57.53125 -32.578125 C 58.695312 -33.765625 59.613281 -34.988281 60.28125 -36.25 C 60.945312 -37.507812 61.28125 -38.785156 61.28125 -40.078125 C 61.28125 -43.304688 57.195312 -44.921875 49.03125 -44.921875 C 45.90625 -44.921875 42.742188 -44.597656 39.546875 -43.953125 C 36.359375 -43.304688 33.21875 -42.429688 30.125 -41.328125 C 27.039062 -40.222656 24.085938 -38.953125 21.265625 -37.515625 C 18.441406 -36.085938 15.8125 -34.578125 13.375 -32.984375 C 10.945312 -31.390625 8.785156 -29.789062 6.890625 -28.1875 C 4.992188 -26.582031 3.453125 -25.050781 2.265625 -23.59375 C 2.046875 -23.332031 1.757812 -23.203125 1.40625 -23.203125 C 1.101562 -23.203125 0.84375 -23.304688 0.625 -23.515625 C 0.414062 -23.734375 0.3125 -23.992188 0.3125 -24.296875 C 0.3125 -24.546875 0.390625 -24.78125 0.546875 -25 C 1.773438 -26.5 3.367188 -28.082031 5.328125 -29.75 C 7.296875 -31.414062 9.539062 -33.078125 12.0625 -34.734375 C 14.59375 -36.390625 17.328125 -37.957031 20.265625 -39.4375 C 23.203125 -40.925781 26.269531 -42.25 29.46875 -43.40625 C 32.675781 -44.5625 35.929688 -45.46875 39.234375 -46.125 C 42.535156 -46.789062 45.800781 -47.125 49.03125 -47.125 C 58.664062 -47.125 63.484375 -44.773438 63.484375 -40.078125 Z M 26.71875 -19.796875 C 26.71875 -19.816406 26.847656 -19.828125 27.109375 -19.828125 C 27.367188 -19.828125 27.566406 -19.828125 27.703125 -19.828125 C 29.140625 -19.828125 30.820312 -20.019531 32.75 -20.40625 C 34.6875 -20.789062 36.738281 -21.332031 38.90625 -22.03125 C 38.457031 -22.070312 38.019531 -22.101562 37.59375 -22.125 C 37.175781 -22.144531 36.753906 -22.15625 36.328125 -22.15625 C 35.222656 -22.15625 34.109375 -22.082031 32.984375 -21.9375 C 31.859375 -21.789062 30.820312 -21.597656 29.875 -21.359375 C 28.9375 -21.128906 28.179688 -20.875 27.609375 -20.59375 C 27.035156 -20.320312 26.738281 -20.054688 26.71875 -19.796875 Z M 9.546875 5.5 C 12.328125 5.5 15.171875 5.269531 18.078125 4.8125 C 20.984375 4.363281 23.828125 3.71875 26.609375 2.875 C 29.390625 2.039062 32.003906 1.015625 34.453125 -0.203125 C 36.910156 -1.421875 39.082031 -2.796875 40.96875 -4.328125 C 42.863281 -5.859375 44.351562 -7.523438 45.4375 -9.328125 C 41.863281 -10.003906 38.039062 -10.34375 33.96875 -10.34375 C 31.3125 -10.34375 28.617188 -10.175781 25.890625 -9.84375 C 23.171875 -9.519531 20.53125 -9.078125 17.96875 -8.515625 C 15.414062 -7.953125 13.035156 -7.289062 10.828125 -6.53125 C 10.765625 -6.53125 10.703125 -6.5 10.640625 -6.4375 C 9.171875 -4.582031 7.753906 -2.726562 6.390625 -0.875 C 5.035156 0.976562 3.753906 2.804688 2.546875 4.609375 C 3.398438 4.867188 4.421875 5.082031 5.609375 5.25 C 6.796875 5.414062 8.109375 5.5 9.546875 5.5 Z M 0.609375 3.5625 C 1.515625 2.164062 2.484375 0.757812 3.515625 -0.65625 C 4.546875 -2.082031 5.625 -3.53125 6.75 -5 C 4.375 -3.9375 2.546875 -2.875 1.265625 -1.8125 C -0.00390625 -0.75 -0.640625 0.253906 -0.640625 1.203125 C -0.640625 2.140625 -0.222656 2.925781 0.609375 3.5625 Z M 2.546875 4.578125 L 2.546875 4.609375 Z M 2.546875 4.578125 "/></g></g></g><g fill="#000000" fill-opacity="1"><g transform="translate(129.482654, 100.173084)"><g><path d="M 10.0625 -17.546875 C 9.757812 -17.546875 9.5 -17.65625 9.28125 -17.875 C 9.0625 -18.09375 8.953125 -18.351562 8.953125 -18.65625 C 8.953125 -18.90625 9.035156 -19.128906 9.203125 -19.328125 L 10.984375 -21.6875 C 11.210938 -21.957031 11.5 -22.09375 11.84375 -22.09375 C 12.144531 -22.09375 12.40625 -21.984375 12.625 -21.765625 C 12.84375 -21.554688 12.953125 -21.296875 12.953125 -20.984375 C 12.953125 -20.742188 12.867188 -20.507812 12.703125 -20.28125 C 12.554688 -20.132812 12.359375 -19.894531 12.109375 -19.5625 C 11.867188 -19.226562 11.640625 -18.914062 11.421875 -18.625 C 11.335938 -18.476562 11.25 -18.351562 11.15625 -18.25 C 11.0625 -18.15625 10.992188 -18.066406 10.953125 -17.984375 C 10.722656 -17.691406 10.425781 -17.546875 10.0625 -17.546875 Z M 1.171875 1.109375 C -0.117188 1.109375 -1.128906 0.765625 -1.859375 0.078125 C -2.585938 -0.609375 -2.953125 -1.566406 -2.953125 -2.796875 C -2.953125 -4.054688 -2.203125 -5.804688 -0.703125 -8.046875 C 0.785156 -10.296875 2.878906 -12.8125 5.578125 -15.59375 C 5.804688 -15.8125 6.070312 -15.921875 6.375 -15.921875 C 6.664062 -15.921875 6.921875 -15.804688 7.140625 -15.578125 C 7.367188 -15.359375 7.484375 -15.109375 7.484375 -14.828125 C 7.484375 -14.554688 7.390625 -14.304688 7.203125 -14.078125 L 7.1875 -14.046875 C 5.625 -12.453125 4.242188 -10.910156 3.046875 -9.421875 C 1.859375 -7.929688 0.929688 -6.613281 0.265625 -5.46875 C -0.398438 -4.320312 -0.734375 -3.429688 -0.734375 -2.796875 C -0.734375 -2.203125 -0.585938 -1.769531 -0.296875 -1.5 C -0.015625 -1.238281 0.472656 -1.109375 1.171875 -1.109375 C 1.859375 -1.109375 2.796875 -1.273438 3.984375 -1.609375 C 5.171875 -1.953125 6.519531 -2.40625 8.03125 -2.96875 C 9.550781 -3.539062 11.144531 -4.203125 12.8125 -4.953125 C 14.476562 -5.703125 16.15625 -6.492188 17.84375 -7.328125 C 19.53125 -8.171875 21.140625 -9.015625 22.671875 -9.859375 C 24.210938 -10.710938 25.59375 -11.523438 26.8125 -12.296875 C 27.0625 -12.398438 27.257812 -12.453125 27.40625 -12.453125 C 27.6875 -12.453125 27.9375 -12.335938 28.15625 -12.109375 C 28.382812 -11.890625 28.5 -11.640625 28.5 -11.359375 C 28.5 -10.921875 28.328125 -10.601562 27.984375 -10.40625 C 26.753906 -9.625 25.347656 -8.796875 23.765625 -7.921875 C 22.179688 -7.054688 20.519531 -6.191406 18.78125 -5.328125 C 17.039062 -4.472656 15.296875 -3.65625 13.546875 -2.875 C 11.796875 -2.101562 10.125 -1.421875 8.53125 -0.828125 C 6.9375 -0.234375 5.503906 0.234375 4.234375 0.578125 C 2.960938 0.929688 1.941406 1.109375 1.171875 1.109375 Z M 1.171875 1.109375 "/></g></g></g><g fill="#000000" fill-opacity="1"><g transform="translate(153.750689, 100.173084)"><g><path d="M -3.890625 0.25 C -4.367188 0.25 -4.738281 0.078125 -5 -0.265625 C -5.269531 -0.617188 -5.351562 -1.039062 -5.25 -1.53125 C -5.1875 -1.863281 -4.898438 -2.429688 -4.390625 -3.234375 C -3.878906 -4.046875 -3.195312 -5.03125 -2.34375 -6.1875 C -1.5 -7.34375 -0.523438 -8.59375 0.578125 -9.9375 C 1.679688 -11.289062 2.875 -12.660156 4.15625 -14.046875 C 5.4375 -15.441406 6.753906 -16.78125 8.109375 -18.0625 C 9.472656 -19.351562 10.832031 -20.515625 12.1875 -21.546875 C 12.40625 -21.679688 12.628906 -21.75 12.859375 -21.75 C 13.160156 -21.75 13.421875 -21.640625 13.640625 -21.421875 C 13.859375 -21.210938 13.96875 -20.957031 13.96875 -20.65625 C 13.96875 -20.28125 13.820312 -19.984375 13.53125 -19.765625 C 12.132812 -18.722656 10.742188 -17.546875 9.359375 -16.234375 C 7.984375 -14.921875 6.664062 -13.578125 5.40625 -12.203125 C 4.15625 -10.835938 3.019531 -9.535156 2 -8.296875 C 0.988281 -7.054688 0.160156 -5.988281 -0.484375 -5.09375 C -0.609375 -4.925781 -0.640625 -4.800781 -0.578125 -4.71875 C -0.515625 -4.644531 -0.375 -4.675781 -0.15625 -4.8125 C 3.46875 -7.414062 6.59375 -9.539062 9.21875 -11.1875 C 11.84375 -12.832031 14.070312 -14.046875 15.90625 -14.828125 C 17.738281 -15.617188 19.226562 -16.015625 20.375 -16.015625 C 21.175781 -16.015625 21.804688 -15.816406 22.265625 -15.421875 C 22.722656 -15.023438 22.953125 -14.46875 22.953125 -13.75 C 22.953125 -13.113281 22.835938 -12.273438 22.609375 -11.234375 C 22.390625 -10.191406 22.15625 -9.15625 21.90625 -8.125 C 21.695312 -7.25 21.507812 -6.445312 21.34375 -5.71875 C 21.1875 -5 21.109375 -4.484375 21.109375 -4.171875 C 21.109375 -3.890625 21.191406 -3.6875 21.359375 -3.5625 C 21.535156 -3.4375 21.851562 -3.375 22.3125 -3.375 C 23.476562 -3.375 24.847656 -3.582031 26.421875 -4 C 27.992188 -4.425781 29.710938 -5.023438 31.578125 -5.796875 C 33.453125 -6.578125 35.40625 -7.515625 37.4375 -8.609375 C 39.476562 -9.703125 41.523438 -10.925781 43.578125 -12.28125 C 43.753906 -12.394531 43.957031 -12.453125 44.1875 -12.453125 C 44.488281 -12.453125 44.75 -12.34375 44.96875 -12.125 C 45.1875 -11.914062 45.296875 -11.660156 45.296875 -11.359375 C 45.296875 -10.921875 45.117188 -10.613281 44.765625 -10.4375 C 42.617188 -9.019531 40.476562 -7.738281 38.34375 -6.59375 C 36.21875 -5.445312 34.171875 -4.46875 32.203125 -3.65625 C 30.242188 -2.851562 28.421875 -2.238281 26.734375 -1.8125 C 25.046875 -1.382812 23.570312 -1.171875 22.3125 -1.171875 C 21.25 -1.171875 20.414062 -1.4375 19.8125 -1.96875 C 19.207031 -2.5 18.90625 -3.234375 18.90625 -4.171875 C 18.90625 -4.597656 18.992188 -5.222656 19.171875 -6.046875 C 19.359375 -6.878906 19.554688 -7.75 19.765625 -8.65625 C 20.003906 -9.675781 20.226562 -10.640625 20.4375 -11.546875 C 20.644531 -12.460938 20.75 -13.050781 20.75 -13.3125 C 20.75 -13.644531 20.582031 -13.8125 20.25 -13.8125 C 19.550781 -13.8125 18.691406 -13.609375 17.671875 -13.203125 C 16.648438 -12.804688 15.523438 -12.273438 14.296875 -11.609375 C 13.066406 -10.941406 11.789062 -10.191406 10.46875 -9.359375 C 9.15625 -8.535156 7.847656 -7.6875 6.546875 -6.8125 C 5.253906 -5.9375 4.023438 -5.082031 2.859375 -4.25 C 1.691406 -3.414062 0.65625 -2.675781 -0.25 -2.03125 C -0.382812 -1.925781 -0.519531 -1.828125 -0.65625 -1.734375 C -0.789062 -1.640625 -0.921875 -1.539062 -1.046875 -1.4375 C -1.921875 -0.78125 -2.554688 -0.332031 -2.953125 -0.09375 C -3.359375 0.132812 -3.671875 0.25 -3.890625 0.25 Z M -3.890625 0.25 "/></g></g></g><g fill="#000000" fill-opacity="1"><g transform="translate(194.770096, 100.173084)"><g><path d="M 40.75 -12.484375 C 41.050781 -12.484375 41.3125 -12.375 41.53125 -12.15625 C 41.75 -11.945312 41.859375 -11.691406 41.859375 -11.390625 C 41.859375 -10.992188 41.679688 -10.675781 41.328125 -10.4375 C 39.429688 -9.144531 37.441406 -7.941406 35.359375 -6.828125 C 33.285156 -5.710938 31.207031 -4.707031 29.125 -3.8125 C 27.050781 -2.925781 25.0625 -2.171875 23.15625 -1.546875 C 21.257812 -0.921875 19.53125 -0.4375 17.96875 -0.09375 C 16.40625 0.238281 15.085938 0.40625 14.015625 0.40625 C 12.296875 0.40625 10.984375 0.0234375 10.078125 -0.734375 C 9.171875 -1.492188 8.71875 -2.585938 8.71875 -4.015625 C 8.71875 -5.078125 9.429688 -6.859375 10.859375 -9.359375 C 11.023438 -9.640625 11.050781 -9.816406 10.9375 -9.890625 C 10.820312 -9.960938 10.65625 -9.890625 10.4375 -9.671875 C 6.789062 -6.453125 3.863281 -4.007812 1.65625 -2.34375 C -0.550781 -0.675781 -2.015625 0.15625 -2.734375 0.15625 C -3.460938 0.15625 -4.039062 -0.0351562 -4.46875 -0.421875 C -4.90625 -0.816406 -5.125 -1.351562 -5.125 -2.03125 C -5.125 -2.925781 -4.875 -3.882812 -4.375 -4.90625 C -3.875 -5.925781 -3.191406 -6.945312 -2.328125 -7.96875 C -1.472656 -9 -0.5 -9.972656 0.59375 -10.890625 C 1.6875 -11.816406 2.84375 -12.640625 4.0625 -13.359375 C 5.28125 -14.085938 6.488281 -14.660156 7.6875 -15.078125 C 8.882812 -15.492188 10.015625 -15.703125 11.078125 -15.703125 C 11.859375 -15.703125 12.613281 -15.5625 13.34375 -15.28125 C 13.914062 -15.8125 14.507812 -16.363281 15.125 -16.9375 C 15.738281 -17.507812 16.363281 -18.09375 17 -18.6875 L 16.9375 -18.65625 C 18.738281 -21.175781 20.726562 -23.851562 22.90625 -26.6875 C 25.082031 -29.53125 27.375 -32.4375 29.78125 -35.40625 C 32.1875 -38.375 34.628906 -41.320312 37.109375 -44.25 C 39.597656 -47.175781 42.046875 -49.984375 44.453125 -52.671875 C 46.867188 -55.359375 49.179688 -57.847656 51.390625 -60.140625 C 53.597656 -62.429688 55.617188 -64.4375 57.453125 -66.15625 C 59.285156 -67.875 60.859375 -69.207031 62.171875 -70.15625 C 63.492188 -71.101562 64.484375 -71.578125 65.140625 -71.578125 C 66.671875 -71.578125 67.4375 -70.875 67.4375 -69.46875 C 67.4375 -69 67.015625 -68.148438 66.171875 -66.921875 C 65.335938 -65.691406 64.164062 -64.164062 62.65625 -62.34375 C 61.144531 -60.53125 59.359375 -58.484375 57.296875 -56.203125 C 55.242188 -53.921875 52.988281 -51.484375 50.53125 -48.890625 C 48.082031 -46.304688 45.503906 -43.632812 42.796875 -40.875 C 40.097656 -38.113281 37.34375 -35.335938 34.53125 -32.546875 C 31.71875 -29.753906 28.925781 -27.015625 26.15625 -24.328125 C 23.382812 -21.648438 20.703125 -19.101562 18.109375 -16.6875 C 17.648438 -16.050781 17.21875 -15.429688 16.8125 -14.828125 C 16.40625 -14.234375 16.007812 -13.660156 15.625 -13.109375 C 15.78125 -12.773438 15.882812 -12.425781 15.9375 -12.0625 C 15.988281 -11.707031 15.992188 -11.359375 15.953125 -11.015625 C 15.929688 -10.734375 15.8125 -10.488281 15.59375 -10.28125 C 15.382812 -10.070312 15.132812 -9.96875 14.84375 -9.96875 C 14.4375 -9.96875 14.132812 -10.132812 13.9375 -10.46875 C 11.925781 -7.226562 10.921875 -5.078125 10.921875 -4.015625 C 10.921875 -3.242188 11.15625 -2.679688 11.625 -2.328125 C 12.09375 -1.984375 12.890625 -1.8125 14.015625 -1.8125 C 15.003906 -1.8125 16.238281 -1.972656 17.71875 -2.296875 C 19.195312 -2.628906 20.847656 -3.097656 22.671875 -3.703125 C 24.492188 -4.304688 26.394531 -5.035156 28.375 -5.890625 C 30.363281 -6.753906 32.359375 -7.726562 34.359375 -8.8125 C 36.367188 -9.894531 38.296875 -11.054688 40.140625 -12.296875 C 40.296875 -12.421875 40.5 -12.484375 40.75 -12.484375 Z M 65.140625 -69.375 C 64.710938 -69.375 63.96875 -68.96875 62.90625 -68.15625 C 61.84375 -67.351562 60.523438 -66.203125 58.953125 -64.703125 C 57.390625 -63.210938 55.628906 -61.453125 53.671875 -59.421875 C 51.722656 -57.398438 49.644531 -55.160156 47.4375 -52.703125 C 45.226562 -50.253906 42.941406 -47.660156 40.578125 -44.921875 C 38.210938 -42.179688 35.832031 -39.359375 33.4375 -36.453125 C 31.050781 -33.546875 28.710938 -30.628906 26.421875 -27.703125 C 27.722656 -28.972656 29.191406 -30.421875 30.828125 -32.046875 C 32.472656 -33.671875 34.210938 -35.414062 36.046875 -37.28125 C 37.890625 -39.144531 39.769531 -41.0625 41.6875 -43.03125 C 43.613281 -45.007812 45.535156 -46.984375 47.453125 -48.953125 C 49.367188 -50.929688 51.195312 -52.847656 52.9375 -54.703125 C 54.6875 -56.566406 56.3125 -58.316406 57.8125 -59.953125 C 59.320312 -61.585938 60.632812 -63.054688 61.75 -64.359375 C 62.863281 -65.660156 63.734375 -66.726562 64.359375 -67.5625 C 64.984375 -68.40625 65.296875 -68.957031 65.296875 -69.21875 C 65.296875 -69.320312 65.242188 -69.375 65.140625 -69.375 Z M -2.609375 -2.0625 C -2.160156 -2.0625 -0.71875 -3.050781 1.71875 -5.03125 C 4.15625 -7.019531 7.378906 -9.84375 11.390625 -13.5 L 11.078125 -13.5 C 10.234375 -13.5 9.300781 -13.3125 8.28125 -12.9375 C 7.257812 -12.570312 6.226562 -12.078125 5.1875 -11.453125 C 4.144531 -10.835938 3.140625 -10.140625 2.171875 -9.359375 C 1.210938 -8.578125 0.351562 -7.765625 -0.40625 -6.921875 C -1.175781 -6.085938 -1.785156 -5.269531 -2.234375 -4.46875 C -2.691406 -3.675781 -2.921875 -2.960938 -2.921875 -2.328125 C -2.921875 -2.148438 -2.816406 -2.0625 -2.609375 -2.0625 Z M -2.609375 -2.0625 "/></g></g></g><g fill="#000000" fill-opacity="1"><g transform="translate(232.353312, 100.173084)"><g><path d="M 31.671875 -12.453125 C 31.972656 -12.453125 32.226562 -12.34375 32.4375 -12.125 C 32.65625 -11.914062 32.765625 -11.660156 32.765625 -11.359375 C 32.765625 -10.960938 32.613281 -10.664062 32.3125 -10.46875 C 30.34375 -9.03125 28.265625 -7.71875 26.078125 -6.53125 C 23.890625 -5.34375 21.710938 -4.300781 19.546875 -3.40625 C 17.378906 -2.507812 15.320312 -1.757812 13.375 -1.15625 C 11.4375 -0.550781 9.707031 -0.09375 8.1875 0.21875 C 6.675781 0.539062 5.492188 0.703125 4.640625 0.703125 C 2.460938 0.703125 0.78125 0.304688 -0.40625 -0.484375 C -1.601562 -1.285156 -2.203125 -2.410156 -2.203125 -3.859375 C -2.203125 -4.828125 -1.953125 -5.851562 -1.453125 -6.9375 C -0.953125 -8.019531 -0.285156 -9.078125 0.546875 -10.109375 C 1.390625 -11.140625 2.328125 -12.078125 3.359375 -12.921875 C 4.390625 -13.773438 5.441406 -14.453125 6.515625 -14.953125 C 7.585938 -15.453125 8.609375 -15.703125 9.578125 -15.703125 C 10.429688 -15.703125 11.117188 -15.476562 11.640625 -15.03125 C 12.160156 -14.582031 12.421875 -13.988281 12.421875 -13.25 C 12.421875 -12.738281 12.242188 -12.234375 11.890625 -11.734375 C 11.535156 -11.234375 11.054688 -10.773438 10.453125 -10.359375 C 9.847656 -9.941406 9.191406 -9.601562 8.484375 -9.34375 C 7.773438 -9.082031 7.066406 -8.953125 6.359375 -8.953125 C 4.941406 -8.953125 3.804688 -9.140625 2.953125 -9.515625 C 2.023438 -8.515625 1.300781 -7.507812 0.78125 -6.5 C 0.257812 -5.5 0 -4.617188 0 -3.859375 C 0 -2.285156 1.546875 -1.5 4.640625 -1.5 C 5.429688 -1.5 6.539062 -1.644531 7.96875 -1.9375 C 9.40625 -2.238281 11.046875 -2.679688 12.890625 -3.265625 C 14.734375 -3.847656 16.691406 -4.570312 18.765625 -5.4375 C 20.835938 -6.3125 22.921875 -7.316406 25.015625 -8.453125 C 27.117188 -9.585938 29.117188 -10.851562 31.015625 -12.25 C 31.179688 -12.382812 31.398438 -12.453125 31.671875 -12.453125 Z M 10.21875 -13.25 C 10.21875 -13.332031 10.179688 -13.394531 10.109375 -13.4375 C 10.035156 -13.476562 9.859375 -13.5 9.578125 -13.5 C 8.941406 -13.5 8.203125 -13.300781 7.359375 -12.90625 C 6.523438 -12.519531 5.664062 -11.972656 4.78125 -11.265625 C 5.21875 -11.203125 5.742188 -11.171875 6.359375 -11.171875 C 7.128906 -11.171875 7.800781 -11.296875 8.375 -11.546875 C 8.945312 -11.804688 9.394531 -12.097656 9.71875 -12.421875 C 10.050781 -12.753906 10.21875 -13.03125 10.21875 -13.25 Z M 10.21875 -13.25 "/></g></g></g><g fill="#000000" fill-opacity="1"><g transform="translate(260.885874, 100.173084)"><g><path d="M 1.78125 15.28125 C 0.46875 15.28125 -0.53125 14.9375 -1.21875 14.25 C -1.914062 13.5625 -2.265625 12.597656 -2.265625 11.359375 C -2.265625 10.390625 -1.988281 9.320312 -1.4375 8.15625 C -0.882812 6.988281 -0.128906 5.765625 0.828125 4.484375 C 1.785156 3.210938 2.878906 1.894531 4.109375 0.53125 C 5.335938 -0.820312 6.632812 -2.1875 8 -3.5625 C 9.375 -4.945312 10.75 -6.316406 12.125 -7.671875 C 13.632812 -9.140625 15.066406 -10.5625 16.421875 -11.9375 C 17.785156 -13.320312 18.992188 -14.613281 20.046875 -15.8125 C 21.097656 -17.007812 21.929688 -18.082031 22.546875 -19.03125 C 23.160156 -19.988281 23.46875 -20.785156 23.46875 -21.421875 C 23.46875 -21.828125 23.207031 -22.285156 22.6875 -22.796875 C 22.164062 -23.304688 21.269531 -23.984375 20 -24.828125 C 18.300781 -23.066406 16.515625 -21.304688 14.640625 -19.546875 C 12.773438 -17.785156 10.910156 -16.125 9.046875 -14.5625 C 7.191406 -13 5.425781 -11.625 3.75 -10.4375 C 3.582031 -10.289062 3.363281 -10.21875 3.09375 -10.21875 C 2.789062 -10.21875 2.53125 -10.320312 2.3125 -10.53125 C 2.101562 -10.75 2 -11.015625 2 -11.328125 C 2 -11.710938 2.160156 -12.019531 2.484375 -12.25 C 4.328125 -13.53125 6.15625 -14.929688 7.96875 -16.453125 C 9.789062 -17.984375 11.566406 -19.5625 13.296875 -21.1875 C 15.023438 -22.8125 16.660156 -24.421875 18.203125 -26.015625 C 16.785156 -26.960938 15.804688 -27.726562 15.265625 -28.3125 C 14.722656 -28.894531 14.453125 -29.484375 14.453125 -30.078125 C 14.453125 -30.660156 14.695312 -31.332031 15.1875 -32.09375 C 15.675781 -32.851562 16.328125 -33.644531 17.140625 -34.46875 C 17.960938 -35.300781 18.878906 -36.109375 19.890625 -36.890625 C 20.910156 -37.679688 21.957031 -38.390625 23.03125 -39.015625 C 24.101562 -39.640625 25.132812 -40.140625 26.125 -40.515625 C 27.113281 -40.890625 27.976562 -41.078125 28.71875 -41.078125 C 29.3125 -41.078125 29.773438 -40.90625 30.109375 -40.5625 C 30.453125 -40.21875 30.625 -39.738281 30.625 -39.125 C 30.625 -38.488281 30.265625 -37.5625 29.546875 -36.34375 C 28.828125 -35.125 27.785156 -33.675781 26.421875 -32 C 25.066406 -30.320312 23.441406 -28.460938 21.546875 -26.421875 C 21.765625 -26.191406 21.992188 -25.96875 22.234375 -25.75 C 22.484375 -25.539062 22.722656 -25.34375 22.953125 -25.15625 C 23.734375 -24.46875 24.382812 -23.835938 24.90625 -23.265625 C 25.425781 -22.691406 25.6875 -22.078125 25.6875 -21.421875 C 25.6875 -20.535156 25.347656 -19.519531 24.671875 -18.375 C 23.992188 -17.226562 23.082031 -15.988281 21.9375 -14.65625 C 20.789062 -13.332031 19.503906 -11.941406 18.078125 -10.484375 C 16.660156 -9.035156 15.195312 -7.578125 13.6875 -6.109375 C 11.988281 -4.429688 10.320312 -2.765625 8.6875 -1.109375 C 7.050781 0.546875 5.570312 2.132812 4.25 3.65625 C 2.925781 5.1875 1.875 6.601562 1.09375 7.90625 C 0.320312 9.21875 -0.0625 10.367188 -0.0625 11.359375 C -0.0625 11.984375 0.0664062 12.425781 0.328125 12.6875 C 0.597656 12.945312 1.082031 13.078125 1.78125 13.078125 C 2.90625 13.078125 4.316406 12.789062 6.015625 12.21875 C 7.710938 11.644531 9.625 10.84375 11.75 9.8125 C 13.875 8.789062 16.132812 7.601562 18.53125 6.25 C 20.925781 4.90625 23.378906 3.457031 25.890625 1.90625 C 28.410156 0.363281 30.914062 -1.222656 33.40625 -2.859375 C 35.90625 -4.492188 38.3125 -6.109375 40.625 -7.703125 C 42.9375 -9.296875 45.082031 -10.8125 47.0625 -12.25 C 47.226562 -12.382812 47.445312 -12.453125 47.71875 -12.453125 C 48.019531 -12.453125 48.273438 -12.34375 48.484375 -12.125 C 48.703125 -11.914062 48.8125 -11.660156 48.8125 -11.359375 C 48.8125 -10.960938 48.660156 -10.664062 48.359375 -10.46875 C 46.367188 -9.03125 44.203125 -7.503906 41.859375 -5.890625 C 39.523438 -4.273438 37.085938 -2.632812 34.546875 -0.96875 C 32.015625 0.695312 29.457031 2.316406 26.875 3.890625 C 24.300781 5.472656 21.78125 6.945312 19.3125 8.3125 C 16.851562 9.6875 14.515625 10.894531 12.296875 11.9375 C 10.085938 12.976562 8.082031 13.796875 6.28125 14.390625 C 4.488281 14.984375 2.988281 15.28125 1.78125 15.28125 Z M 19.703125 -27.640625 C 20.429688 -28.421875 21.234375 -29.3125 22.109375 -30.3125 C 22.992188 -31.3125 23.859375 -32.328125 24.703125 -33.359375 C 25.554688 -34.398438 26.296875 -35.351562 26.921875 -36.21875 C 27.546875 -37.09375 27.960938 -37.773438 28.171875 -38.265625 C 28.234375 -38.453125 28.210938 -38.582031 28.109375 -38.65625 C 28.003906 -38.738281 27.847656 -38.757812 27.640625 -38.71875 C 27.109375 -38.613281 26.46875 -38.375 25.71875 -38 C 24.976562 -37.625 24.195312 -37.164062 23.375 -36.625 C 22.5625 -36.082031 21.753906 -35.503906 20.953125 -34.890625 C 20.160156 -34.273438 19.441406 -33.660156 18.796875 -33.046875 C 18.148438 -32.429688 17.628906 -31.863281 17.234375 -31.34375 C 16.847656 -30.820312 16.65625 -30.398438 16.65625 -30.078125 C 16.65625 -29.828125 17.671875 -29.015625 19.703125 -27.640625 Z M 19.703125 -27.640625 "/></g></g></g><g fill="#000000" fill-opacity="1"><g transform="translate(150.356782, 131.675301)"><g><path d="M 3.703125 0.046875 C 3.085938 0.046875 2.53125 -0.0859375 2.03125 -0.359375 C 1.539062 -0.628906 1.15625 -1.003906 0.875 -1.484375 C 0.59375 -1.960938 0.453125 -2.5 0.453125 -3.09375 C 0.453125 -3.6875 0.59375 -4.222656 0.875 -4.703125 C 1.15625 -5.191406 1.539062 -5.570312 2.03125 -5.84375 C 2.53125 -6.113281 3.085938 -6.25 3.703125 -6.25 C 4.160156 -6.25 4.582031 -6.171875 4.96875 -6.015625 C 5.363281 -5.859375 5.695312 -5.632812 5.96875 -5.34375 L 5.546875 -4.921875 C 5.066406 -5.410156 4.457031 -5.65625 3.71875 -5.65625 C 3.226562 -5.65625 2.78125 -5.539062 2.375 -5.3125 C 1.976562 -5.09375 1.664062 -4.789062 1.4375 -4.40625 C 1.21875 -4.019531 1.109375 -3.582031 1.109375 -3.09375 C 1.109375 -2.613281 1.21875 -2.175781 1.4375 -1.78125 C 1.664062 -1.394531 1.976562 -1.085938 2.375 -0.859375 C 2.78125 -0.640625 3.226562 -0.53125 3.71875 -0.53125 C 4.46875 -0.53125 5.078125 -0.78125 5.546875 -1.28125 L 5.96875 -0.859375 C 5.695312 -0.566406 5.363281 -0.34375 4.96875 -0.1875 C 4.582031 -0.03125 4.160156 0.046875 3.703125 0.046875 Z M 3.703125 0.046875 "/></g></g></g><g fill="#000000" fill-opacity="1"><g transform="translate(157.157114, 131.675301)"><g><path d="M 3.5 0.046875 C 2.695312 0.046875 2.070312 -0.179688 1.625 -0.640625 C 1.175781 -1.097656 0.953125 -1.765625 0.953125 -2.640625 L 0.953125 -6.1875 L 1.609375 -6.1875 L 1.609375 -2.671875 C 1.609375 -1.953125 1.769531 -1.414062 2.09375 -1.0625 C 2.414062 -0.707031 2.882812 -0.53125 3.5 -0.53125 C 4.125 -0.53125 4.597656 -0.707031 4.921875 -1.0625 C 5.242188 -1.414062 5.40625 -1.953125 5.40625 -2.671875 L 5.40625 -6.1875 L 6.046875 -6.1875 L 6.046875 -2.640625 C 6.046875 -1.765625 5.820312 -1.097656 5.375 -0.640625 C 4.925781 -0.179688 4.300781 0.046875 3.5 0.046875 Z M 3.5 0.046875 "/></g></g></g><g fill="#000000" fill-opacity="1"><g transform="translate(164.602969, 131.675301)"><g><path d="M 2.71875 0.046875 C 2.257812 0.046875 1.816406 -0.0234375 1.390625 -0.171875 C 0.972656 -0.316406 0.648438 -0.507812 0.421875 -0.75 L 0.671875 -1.25 C 0.898438 -1.03125 1.195312 -0.847656 1.5625 -0.703125 C 1.9375 -0.566406 2.320312 -0.5 2.71875 -0.5 C 3.269531 -0.5 3.679688 -0.597656 3.953125 -0.796875 C 4.234375 -1.003906 4.375 -1.269531 4.375 -1.59375 C 4.375 -1.84375 4.296875 -2.039062 4.140625 -2.1875 C 3.992188 -2.34375 3.8125 -2.457031 3.59375 -2.53125 C 3.375 -2.613281 3.070312 -2.703125 2.6875 -2.796875 C 2.21875 -2.910156 1.84375 -3.019531 1.5625 -3.125 C 1.289062 -3.238281 1.054688 -3.40625 0.859375 -3.625 C 0.660156 -3.851562 0.5625 -4.160156 0.5625 -4.546875 C 0.5625 -4.859375 0.644531 -5.140625 0.8125 -5.390625 C 0.976562 -5.648438 1.234375 -5.859375 1.578125 -6.015625 C 1.921875 -6.171875 2.34375 -6.25 2.84375 -6.25 C 3.195312 -6.25 3.539062 -6.195312 3.875 -6.09375 C 4.21875 -6 4.515625 -5.867188 4.765625 -5.703125 L 4.546875 -5.171875 C 4.285156 -5.347656 4.003906 -5.476562 3.703125 -5.5625 C 3.410156 -5.644531 3.125 -5.6875 2.84375 -5.6875 C 2.300781 -5.6875 1.894531 -5.582031 1.625 -5.375 C 1.351562 -5.164062 1.21875 -4.894531 1.21875 -4.5625 C 1.21875 -4.3125 1.289062 -4.109375 1.4375 -3.953125 C 1.582031 -3.804688 1.769531 -3.691406 2 -3.609375 C 2.226562 -3.535156 2.535156 -3.453125 2.921875 -3.359375 C 3.367188 -3.242188 3.734375 -3.128906 4.015625 -3.015625 C 4.296875 -2.910156 4.53125 -2.75 4.71875 -2.53125 C 4.914062 -2.3125 5.015625 -2.015625 5.015625 -1.640625 C 5.015625 -1.328125 4.929688 -1.039062 4.765625 -0.78125 C 4.597656 -0.519531 4.335938 -0.316406 3.984375 -0.171875 C 3.640625 -0.0234375 3.21875 0.046875 2.71875 0.046875 Z M 2.71875 0.046875 "/></g></g></g><g fill="#000000" fill-opacity="1"><g transform="translate(170.483659, 131.675301)"><g><path d="M 2.203125 -5.625 L 0.03125 -5.625 L 0.03125 -6.1875 L 5.046875 -6.1875 L 5.046875 -5.625 L 2.859375 -5.625 L 2.859375 0 L 2.203125 0 Z M 2.203125 -5.625 "/></g></g></g><g fill="#000000" fill-opacity="1"><g transform="translate(176.001793, 131.675301)"><g><path d="M 3.71875 0.046875 C 3.101562 0.046875 2.546875 -0.0859375 2.046875 -0.359375 C 1.546875 -0.628906 1.15625 -1.003906 0.875 -1.484375 C 0.59375 -1.960938 0.453125 -2.5 0.453125 -3.09375 C 0.453125 -3.6875 0.59375 -4.222656 0.875 -4.703125 C 1.15625 -5.179688 1.546875 -5.554688 2.046875 -5.828125 C 2.546875 -6.109375 3.101562 -6.25 3.71875 -6.25 C 4.332031 -6.25 4.882812 -6.113281 5.375 -5.84375 C 5.863281 -5.570312 6.25 -5.191406 6.53125 -4.703125 C 6.8125 -4.222656 6.953125 -3.6875 6.953125 -3.09375 C 6.953125 -2.5 6.8125 -1.960938 6.53125 -1.484375 C 6.25 -1.003906 5.863281 -0.628906 5.375 -0.359375 C 4.882812 -0.0859375 4.332031 0.046875 3.71875 0.046875 Z M 3.71875 -0.53125 C 4.207031 -0.53125 4.648438 -0.640625 5.046875 -0.859375 C 5.441406 -1.078125 5.75 -1.382812 5.96875 -1.78125 C 6.195312 -2.175781 6.3125 -2.613281 6.3125 -3.09375 C 6.3125 -3.582031 6.195312 -4.019531 5.96875 -4.40625 C 5.75 -4.800781 5.441406 -5.109375 5.046875 -5.328125 C 4.648438 -5.546875 4.207031 -5.65625 3.71875 -5.65625 C 3.226562 -5.65625 2.78125 -5.546875 2.375 -5.328125 C 1.976562 -5.109375 1.664062 -4.800781 1.4375 -4.40625 C 1.21875 -4.019531 1.109375 -3.582031 1.109375 -3.09375 C 1.109375 -2.613281 1.21875 -2.175781 1.4375 -1.78125 C 1.664062 -1.382812 1.976562 -1.078125 2.375 -0.859375 C 2.78125 -0.640625 3.226562 -0.53125 3.71875 -0.53125 Z M 3.71875 -0.53125 "/></g></g></g><g fill="#000000" fill-opacity="1"><g transform="translate(183.863255, 131.675301)"><g><path d="M 7.4375 -6.1875 L 7.4375 0 L 6.8125 0 L 6.8125 -4.953125 L 4.375 -0.78125 L 4.0625 -0.78125 L 1.640625 -4.921875 L 1.640625 0 L 1.015625 0 L 1.015625 -6.1875 L 1.546875 -6.1875 L 4.234375 -1.59375 L 6.890625 -6.1875 Z M 7.4375 -6.1875 "/></g></g></g><g fill="#000000" fill-opacity="1"><g transform="translate(192.750477, 131.675301)"><g/></g></g><g fill="#000000" fill-opacity="1"><g transform="translate(195.509679, 131.675301)"><g><path d="M 4.90625 -3.1875 C 5.3125 -3.101562 5.625 -2.925781 5.84375 -2.65625 C 6.070312 -2.394531 6.1875 -2.0625 6.1875 -1.65625 C 6.1875 -1.125 5.988281 -0.710938 5.59375 -0.421875 C 5.195312 -0.140625 4.617188 0 3.859375 0 L 1.015625 0 L 1.015625 -6.1875 L 3.671875 -6.1875 C 4.367188 -6.1875 4.90625 -6.046875 5.28125 -5.765625 C 5.664062 -5.492188 5.859375 -5.101562 5.859375 -4.59375 C 5.859375 -4.25 5.769531 -3.957031 5.59375 -3.71875 C 5.425781 -3.488281 5.195312 -3.3125 4.90625 -3.1875 Z M 1.65625 -5.65625 L 1.65625 -3.40625 L 3.640625 -3.40625 C 4.140625 -3.40625 4.523438 -3.5 4.796875 -3.6875 C 5.066406 -3.882812 5.203125 -4.164062 5.203125 -4.53125 C 5.203125 -4.894531 5.066406 -5.171875 4.796875 -5.359375 C 4.523438 -5.554688 4.140625 -5.65625 3.640625 -5.65625 Z M 3.84375 -0.546875 C 4.394531 -0.546875 4.8125 -0.640625 5.09375 -0.828125 C 5.382812 -1.015625 5.53125 -1.304688 5.53125 -1.703125 C 5.53125 -2.472656 4.96875 -2.859375 3.84375 -2.859375 L 1.65625 -2.859375 L 1.65625 -0.546875 Z M 3.84375 -0.546875 "/></g></g></g><g fill="#000000" fill-opacity="1"><g transform="translate(202.619511, 131.675301)"><g><path d="M 3.71875 0.046875 C 3.101562 0.046875 2.546875 -0.0859375 2.046875 -0.359375 C 1.546875 -0.628906 1.15625 -1.003906 0.875 -1.484375 C 0.59375 -1.960938 0.453125 -2.5 0.453125 -3.09375 C 0.453125 -3.6875 0.59375 -4.222656 0.875 -4.703125 C 1.15625 -5.179688 1.546875 -5.554688 2.046875 -5.828125 C 2.546875 -6.109375 3.101562 -6.25 3.71875 -6.25 C 4.332031 -6.25 4.882812 -6.113281 5.375 -5.84375 C 5.863281 -5.570312 6.25 -5.191406 6.53125 -4.703125 C 6.8125 -4.222656 6.953125 -3.6875 6.953125 -3.09375 C 6.953125 -2.5 6.8125 -1.960938 6.53125 -1.484375 C 6.25 -1.003906 5.863281 -0.628906 5.375 -0.359375 C 4.882812 -0.0859375 4.332031 0.046875 3.71875 0.046875 Z M 3.71875 -0.53125 C 4.207031 -0.53125 4.648438 -0.640625 5.046875 -0.859375 C 5.441406 -1.078125 5.75 -1.382812 5.96875 -1.78125 C 6.195312 -2.175781 6.3125 -2.613281 6.3125 -3.09375 C 6.3125 -3.582031 6.195312 -4.019531 5.96875 -4.40625 C 5.75 -4.800781 5.441406 -5.109375 5.046875 -5.328125 C 4.648438 -5.546875 4.207031 -5.65625 3.71875 -5.65625 C 3.226562 -5.65625 2.78125 -5.546875 2.375 -5.328125 C 1.976562 -5.109375 1.664062 -4.800781 1.4375 -4.40625 C 1.21875 -4.019531 1.109375 -3.582031 1.109375 -3.09375 C 1.109375 -2.613281 1.21875 -2.175781 1.4375 -1.78125 C 1.664062 -1.382812 1.976562 -1.078125 2.375 -0.859375 C 2.78125 -0.640625 3.226562 -0.53125 3.71875 -0.53125 Z M 3.71875 -0.53125 "/></g></g></g><g fill="#000000" fill-opacity="1"><g transform="translate(210.480973, 131.675301)"><g><path d="M 3.71875 0.046875 C 3.101562 0.046875 2.546875 -0.0859375 2.046875 -0.359375 C 1.546875 -0.628906 1.15625 -1.003906 0.875 -1.484375 C 0.59375 -1.960938 0.453125 -2.5 0.453125 -3.09375 C 0.453125 -3.6875 0.59375 -4.222656 0.875 -4.703125 C 1.15625 -5.179688 1.546875 -5.554688 2.046875 -5.828125 C 2.546875 -6.109375 3.101562 -6.25 3.71875 -6.25 C 4.332031 -6.25 4.882812 -6.113281 5.375 -5.84375 C 5.863281 -5.570312 6.25 -5.191406 6.53125 -4.703125 C 6.8125 -4.222656 6.953125 -3.6875 6.953125 -3.09375 C 6.953125 -2.5 6.8125 -1.960938 6.53125 -1.484375 C 6.25 -1.003906 5.863281 -0.628906 5.375 -0.359375 C 4.882812 -0.0859375 4.332031 0.046875 3.71875 0.046875 Z M 3.71875 -0.53125 C 4.207031 -0.53125 4.648438 -0.640625 5.046875 -0.859375 C 5.441406 -1.078125 5.75 -1.382812 5.96875 -1.78125 C 6.195312 -2.175781 6.3125 -2.613281 6.3125 -3.09375 C 6.3125 -3.582031 6.195312 -4.019531 5.96875 -4.40625 C 5.75 -4.800781 5.441406 -5.109375 5.046875 -5.328125 C 4.648438 -5.546875 4.207031 -5.65625 3.71875 -5.65625 C 3.226562 -5.65625 2.78125 -5.546875 2.375 -5.328125 C 1.976562 -5.109375 1.664062 -4.800781 1.4375 -4.40625 C 1.21875 -4.019531 1.109375 -3.582031 1.109375 -3.09375 C 1.109375 -2.613281 1.21875 -2.175781 1.4375 -1.78125 C 1.664062 -1.382812 1.976562 -1.078125 2.375 -0.859375 C 2.78125 -0.640625 3.226562 -0.53125 3.71875 -0.53125 Z M 3.71875 -0.53125 "/></g></g></g><g fill="#000000" fill-opacity="1"><g transform="translate(218.342435, 131.675301)"><g><path d="M 2.921875 -2.90625 L 1.65625 -1.625 L 1.65625 0 L 1.015625 0 L 1.015625 -6.1875 L 1.65625 -6.1875 L 1.65625 -2.453125 L 5.296875 -6.1875 L 6.046875 -6.1875 L 3.375 -3.390625 L 6.234375 0 L 5.453125 0 Z M 2.921875 -2.90625 "/></g></g></g><g fill="#000000" fill-opacity="1"><g transform="translate(167.540145, 143.865849)"><g><path d="M 3.703125 0.046875 C 3.085938 0.046875 2.53125 -0.0859375 2.03125 -0.359375 C 1.539062 -0.628906 1.15625 -1.003906 0.875 -1.484375 C 0.59375 -1.960938 0.453125 -2.5 0.453125 -3.09375 C 0.453125 -3.6875 0.59375 -4.222656 0.875 -4.703125 C 1.15625 -5.191406 1.539062 -5.570312 2.03125 -5.84375 C 2.53125 -6.113281 3.085938 -6.25 3.703125 -6.25 C 4.160156 -6.25 4.582031 -6.171875 4.96875 -6.015625 C 5.363281 -5.859375 5.695312 -5.632812 5.96875 -5.34375 L 5.546875 -4.921875 C 5.066406 -5.410156 4.457031 -5.65625 3.71875 -5.65625 C 3.226562 -5.65625 2.78125 -5.539062 2.375 -5.3125 C 1.976562 -5.09375 1.664062 -4.789062 1.4375 -4.40625 C 1.21875 -4.019531 1.109375 -3.582031 1.109375 -3.09375 C 1.109375 -2.613281 1.21875 -2.175781 1.4375 -1.78125 C 1.664062 -1.394531 1.976562 -1.085938 2.375 -0.859375 C 2.78125 -0.640625 3.226562 -0.53125 3.71875 -0.53125 C 4.46875 -0.53125 5.078125 -0.78125 5.546875 -1.28125 L 5.96875 -0.859375 C 5.695312 -0.566406 5.363281 -0.34375 4.96875 -0.1875 C 4.582031 -0.03125 4.160156 0.046875 3.703125 0.046875 Z M 3.703125 0.046875 "/></g></g></g><g fill="#000000" fill-opacity="1"><g transform="translate(174.340478, 143.865849)"><g><path d="M 3.71875 0.046875 C 3.101562 0.046875 2.546875 -0.0859375 2.046875 -0.359375 C 1.546875 -0.628906 1.15625 -1.003906 0.875 -1.484375 C 0.59375 -1.960938 0.453125 -2.5 0.453125 -3.09375 C 0.453125 -3.6875 0.59375 -4.222656 0.875 -4.703125 C 1.15625 -5.179688 1.546875 -5.554688 2.046875 -5.828125 C 2.546875 -6.109375 3.101562 -6.25 3.71875 -6.25 C 4.332031 -6.25 4.882812 -6.113281 5.375 -5.84375 C 5.863281 -5.570312 6.25 -5.191406 6.53125 -4.703125 C 6.8125 -4.222656 6.953125 -3.6875 6.953125 -3.09375 C 6.953125 -2.5 6.8125 -1.960938 6.53125 -1.484375 C 6.25 -1.003906 5.863281 -0.628906 5.375 -0.359375 C 4.882812 -0.0859375 4.332031 0.046875 3.71875 0.046875 Z M 3.71875 -0.53125 C 4.207031 -0.53125 4.648438 -0.640625 5.046875 -0.859375 C 5.441406 -1.078125 5.75 -1.382812 5.96875 -1.78125 C 6.195312 -2.175781 6.3125 -2.613281 6.3125 -3.09375 C 6.3125 -3.582031 6.195312 -4.019531 5.96875 -4.40625 C 5.75 -4.800781 5.441406 -5.109375 5.046875 -5.328125 C 4.648438 -5.546875 4.207031 -5.65625 3.71875 -5.65625 C 3.226562 -5.65625 2.78125 -5.546875 2.375 -5.328125 C 1.976562 -5.109375 1.664062 -4.800781 1.4375 -4.40625 C 1.21875 -4.019531 1.109375 -3.582031 1.109375 -3.09375 C 1.109375 -2.613281 1.21875 -2.175781 1.4375 -1.78125 C 1.664062 -1.382812 1.976562 -1.078125 2.375 -0.859375 C 2.78125 -0.640625 3.226562 -0.53125 3.71875 -0.53125 Z M 3.71875 -0.53125 "/></g></g></g><g fill="#000000" fill-opacity="1"><g transform="translate(182.201942, 143.865849)"><g><path d="M 6.15625 -6.1875 L 3.40625 0 L 2.765625 0 L 0.03125 -6.1875 L 0.734375 -6.1875 L 3.109375 -0.8125 L 5.484375 -6.1875 Z M 6.15625 -6.1875 "/></g></g></g><g fill="#000000" fill-opacity="1"><g transform="translate(188.816577, 143.865849)"><g><path d="M 5.390625 -0.5625 L 5.390625 0 L 1.015625 0 L 1.015625 -6.1875 L 5.25 -6.1875 L 5.25 -5.625 L 1.65625 -5.625 L 1.65625 -3.421875 L 4.859375 -3.421875 L 4.859375 -2.859375 L 1.65625 -2.859375 L 1.65625 -0.5625 Z M 5.390625 -0.5625 "/></g></g></g><g fill="#000000" fill-opacity="1"><g transform="translate(195.174774, 143.865849)"><g><path d="M 5.234375 0 L 3.828125 -1.984375 C 3.660156 -1.972656 3.492188 -1.96875 3.328125 -1.96875 L 1.65625 -1.96875 L 1.65625 0 L 1.015625 0 L 1.015625 -6.1875 L 3.328125 -6.1875 C 4.117188 -6.1875 4.738281 -6 5.1875 -5.625 C 5.632812 -5.25 5.859375 -4.726562 5.859375 -4.0625 C 5.859375 -3.582031 5.734375 -3.175781 5.484375 -2.84375 C 5.242188 -2.507812 4.894531 -2.269531 4.4375 -2.125 L 5.953125 0 Z M 3.3125 -2.515625 C 3.925781 -2.515625 4.394531 -2.648438 4.71875 -2.921875 C 5.039062 -3.191406 5.203125 -3.570312 5.203125 -4.0625 C 5.203125 -4.5625 5.039062 -4.945312 4.71875 -5.21875 C 4.394531 -5.488281 3.925781 -5.625 3.3125 -5.625 L 1.65625 -5.625 L 1.65625 -2.515625 Z M 3.3125 -2.515625 "/></g></g></g><g fill="#000000" fill-opacity="1"><g transform="translate(202.010482, 143.865849)"><g><path d="M 2.71875 0.046875 C 2.257812 0.046875 1.816406 -0.0234375 1.390625 -0.171875 C 0.972656 -0.316406 0.648438 -0.507812 0.421875 -0.75 L 0.671875 -1.25 C 0.898438 -1.03125 1.195312 -0.847656 1.5625 -0.703125 C 1.9375 -0.566406 2.320312 -0.5 2.71875 -0.5 C 3.269531 -0.5 3.679688 -0.597656 3.953125 -0.796875 C 4.234375 -1.003906 4.375 -1.269531 4.375 -1.59375 C 4.375 -1.84375 4.296875 -2.039062 4.140625 -2.1875 C 3.992188 -2.34375 3.8125 -2.457031 3.59375 -2.53125 C 3.375 -2.613281 3.070312 -2.703125 2.6875 -2.796875 C 2.21875 -2.910156 1.84375 -3.019531 1.5625 -3.125 C 1.289062 -3.238281 1.054688 -3.40625 0.859375 -3.625 C 0.660156 -3.851562 0.5625 -4.160156 0.5625 -4.546875 C 0.5625 -4.859375 0.644531 -5.140625 0.8125 -5.390625 C 0.976562 -5.648438 1.234375 -5.859375 1.578125 -6.015625 C 1.921875 -6.171875 2.34375 -6.25 2.84375 -6.25 C 3.195312 -6.25 3.539062 -6.195312 3.875 -6.09375 C 4.21875 -6 4.515625 -5.867188 4.765625 -5.703125 L 4.546875 -5.171875 C 4.285156 -5.347656 4.003906 -5.476562 3.703125 -5.5625 C 3.410156 -5.644531 3.125 -5.6875 2.84375 -5.6875 C 2.300781 -5.6875 1.894531 -5.582031 1.625 -5.375 C 1.351562 -5.164062 1.21875 -4.894531 1.21875 -4.5625 C 1.21875 -4.3125 1.289062 -4.109375 1.4375 -3.953125 C 1.582031 -3.804688 1.769531 -3.691406 2 -3.609375 C 2.226562 -3.535156 2.535156 -3.453125 2.921875 -3.359375 C 3.367188 -3.242188 3.734375 -3.128906 4.015625 -3.015625 C 4.296875 -2.910156 4.53125 -2.75 4.71875 -2.53125 C 4.914062 -2.3125 5.015625 -2.015625 5.015625 -1.640625 C 5.015625 -1.328125 4.929688 -1.039062 4.765625 -0.78125 C 4.597656 -0.519531 4.335938 -0.316406 3.984375 -0.171875 C 3.640625 -0.0234375 3.21875 0.046875 2.71875 0.046875 Z M 2.71875 0.046875 "/></g></g></g></svg>